<?xml version="1.0" encoding="utf-8"?>
<!-- Generator: Adobe Illustrator 27.5.0, SVG Export Plug-In . SVG Version: 6.00 Build 0)  -->
<svg version="1.1" id="Ñëîé_1" xmlns="http://www.w3.org/2000/svg" xmlns:xlink="http://www.w3.org/1999/xlink" x="0px" y="0px"
	 viewBox="0 0 600 450" style="enable-background:new 0 0 600 450;" xml:space="preserve">
<radialGradient id="SVGID_1_" cx="171.4003" cy="135.2401" r="733.4801" gradientTransform="matrix(1.0858 0 0 1.088 -119.9181 -249.2813)" gradientUnits="userSpaceOnUse">
	<stop  offset="0.004" style="stop-color:#4C02F1"/>
	<stop  offset="0.0082" style="stop-color:#4B02EF"/>
	<stop  offset="0.1263" style="stop-color:#3903C4"/>
	<stop  offset="0.2487" style="stop-color:#29039E"/>
	<stop  offset="0.3765" style="stop-color:#1D0380"/>
	<stop  offset="0.5099" style="stop-color:#130468"/>
	<stop  offset="0.6513" style="stop-color:#0C0457"/>
	<stop  offset="0.8062" style="stop-color:#07044D"/>
	<stop  offset="1" style="stop-color:#06044A"/>
</radialGradient>
<rect x="0" style="fill:url(#SVGID_1_);" width="600" height="450"/>
<g>
	<path style="fill:#FFFFFF;" d="M259.831,409.876c-0.527,0-0.977-0.071-1.348-0.214c-0.371-0.143-0.667-0.355-0.888-0.639
		s-0.381-0.616-0.48-0.999c-0.1-0.383-0.149-0.834-0.149-1.353v-3.586c0-0.52,0.05-0.97,0.149-1.351c0.1-0.381,0.26-0.71,0.48-0.987
		c0.221-0.277,0.517-0.486,0.888-0.627c0.371-0.141,0.82-0.211,1.348-0.211c1.027,0,1.765,0.268,2.212,0.803
		c0.447,0.535,0.671,1.326,0.671,2.373v3.586c0,1.047-0.224,1.843-0.671,2.388C261.595,409.604,260.858,409.876,259.831,409.876z
		 M259.45,408.379c0.105,0.049,0.233,0.073,0.381,0.073c0.148,0,0.276-0.024,0.384-0.073s0.191-0.11,0.252-0.185
		c0.061-0.074,0.108-0.172,0.144-0.293c0.035-0.121,0.058-0.237,0.067-0.349c0.01-0.111,0.015-0.245,0.015-0.401v-4.547
		c0-0.156-0.005-0.29-0.015-0.401s-0.032-0.226-0.067-0.343c-0.035-0.117-0.083-0.212-0.144-0.284
		c-0.06-0.072-0.145-0.132-0.252-0.179c-0.107-0.047-0.235-0.07-0.384-0.07c-0.148,0-0.275,0.023-0.381,0.07
		c-0.105,0.047-0.188,0.106-0.246,0.179c-0.059,0.072-0.104,0.168-0.138,0.287c-0.033,0.119-0.055,0.233-0.064,0.343
		c-0.01,0.109-0.015,0.242-0.015,0.398v4.547c0,0.156,0.005,0.29,0.015,0.401c0.01,0.111,0.031,0.228,0.064,0.349
		c0.033,0.121,0.079,0.219,0.138,0.293C259.262,408.269,259.345,408.33,259.45,408.379z"/>
	<path style="fill:#FFFFFF;" d="M264.009,409.747v-9.715h1.377l2.168,5.045v-5.045h1.641v9.715h-1.318l-2.18-5.367v5.367H264.009z"
		/>
	<path style="fill:#FFFFFF;" d="M270.635,409.747v-9.715h1.975v8.367h2.268v1.348H270.635z"/>
	<path style="fill:#FFFFFF;" d="M275.856,409.747v-9.715h1.963v9.715H275.856z"/>
	<path style="fill:#FFFFFF;" d="M279.284,409.747v-9.715h1.377l2.168,5.045v-5.045h1.641v9.715h-1.318l-2.18-5.367v5.367H279.284z"
		/>
	<path style="fill:#FFFFFF;" d="M285.911,409.747v-9.715h4.23v1.371h-2.256v2.572h1.752v1.383h-1.752v3.041h2.279v1.348H285.911z"/>
	<path style="fill:#FFFFFF;" d="M296.698,409.876c-0.902,0-1.576-0.248-2.021-0.744c-0.445-0.496-0.688-1.258-0.727-2.285
		l1.711-0.305c0.008,0.605,0.089,1.061,0.243,1.368c0.154,0.307,0.392,0.46,0.712,0.46c0.23,0,0.397-0.074,0.501-0.223
		c0.104-0.148,0.155-0.34,0.155-0.574c0-0.383-0.083-0.704-0.249-0.964c-0.166-0.26-0.433-0.55-0.8-0.87l-1.043-0.902
		c-0.266-0.23-0.479-0.446-0.642-0.647c-0.162-0.201-0.299-0.457-0.41-0.768c-0.111-0.31-0.167-0.655-0.167-1.034
		c0-0.785,0.232-1.394,0.697-1.825c0.465-0.432,1.103-0.649,1.916-0.653c0.273,0,0.523,0.027,0.75,0.082
		c0.227,0.055,0.421,0.129,0.583,0.223c0.162,0.094,0.306,0.211,0.431,0.352c0.125,0.141,0.227,0.286,0.305,0.436
		c0.078,0.15,0.145,0.32,0.199,0.51c0.055,0.189,0.094,0.369,0.117,0.539c0.023,0.17,0.041,0.354,0.053,0.554l-1.699,0.27
		c-0.008-0.199-0.018-0.365-0.029-0.498c-0.012-0.133-0.034-0.271-0.067-0.413c-0.033-0.143-0.077-0.254-0.132-0.334
		c-0.055-0.08-0.129-0.145-0.223-0.196c-0.094-0.051-0.205-0.072-0.334-0.065c-0.219,0.012-0.388,0.096-0.507,0.252
		c-0.119,0.156-0.179,0.346-0.179,0.568c0,0.176,0.021,0.335,0.061,0.478c0.041,0.143,0.108,0.278,0.202,0.407
		c0.094,0.129,0.179,0.232,0.255,0.311c0.076,0.078,0.186,0.184,0.331,0.316l1.025,0.891c0.219,0.195,0.409,0.385,0.571,0.568
		c0.162,0.184,0.315,0.393,0.46,0.627c0.145,0.234,0.255,0.492,0.331,0.773c0.076,0.281,0.114,0.58,0.114,0.897
		c0,0.707-0.229,1.287-0.688,1.74C298.047,409.65,297.444,409.876,296.698,409.876z"/>
	<path style="fill:#FFFFFF;" d="M300.26,409.747v-9.715h1.98v3.984h1.711v-3.984h1.98v9.715h-1.98v-4.318h-1.711v4.318H300.26z"/>
	<path style="fill:#FFFFFF;" d="M310.122,409.876c-0.527,0-0.977-0.071-1.348-0.214c-0.371-0.143-0.667-0.355-0.888-0.639
		s-0.381-0.616-0.48-0.999c-0.1-0.383-0.149-0.834-0.149-1.353v-3.586c0-0.52,0.05-0.97,0.149-1.351c0.1-0.381,0.26-0.71,0.48-0.987
		c0.221-0.277,0.517-0.486,0.888-0.627s0.82-0.211,1.348-0.211c1.027,0,1.765,0.268,2.212,0.803
		c0.447,0.535,0.671,1.326,0.671,2.373v3.586c0,1.047-0.224,1.843-0.671,2.388C311.887,409.604,311.149,409.876,310.122,409.876z
		 M309.741,408.379c0.105,0.049,0.232,0.073,0.381,0.073c0.148,0,0.276-0.024,0.384-0.073c0.107-0.049,0.191-0.11,0.252-0.185
		c0.061-0.074,0.108-0.172,0.143-0.293c0.035-0.121,0.058-0.237,0.067-0.349c0.01-0.111,0.015-0.245,0.015-0.401v-4.547
		c0-0.156-0.005-0.29-0.015-0.401s-0.032-0.226-0.067-0.343c-0.035-0.117-0.083-0.212-0.143-0.284
		c-0.061-0.072-0.145-0.132-0.252-0.179c-0.107-0.047-0.235-0.07-0.384-0.07c-0.148,0-0.275,0.023-0.381,0.07
		c-0.105,0.047-0.188,0.106-0.246,0.179c-0.059,0.072-0.104,0.168-0.138,0.287c-0.033,0.119-0.055,0.233-0.065,0.343
		c-0.01,0.109-0.015,0.242-0.015,0.398v4.547c0,0.156,0.005,0.29,0.015,0.401c0.01,0.111,0.031,0.228,0.065,0.349
		c0.033,0.121,0.079,0.219,0.138,0.293C309.553,408.269,309.635,408.33,309.741,408.379z"/>
	<path style="fill:#FFFFFF;" d="M314.3,409.747v-9.715h3.035c1.688,0,2.531,0.93,2.531,2.789c0,0.504-0.066,0.935-0.199,1.292
		c-0.133,0.357-0.324,0.637-0.574,0.838c-0.25,0.201-0.533,0.346-0.85,0.434c-0.316,0.088-0.68,0.132-1.09,0.132h-0.879v4.23H314.3z
		 M316.274,404.134h0.633c0.438,0,0.73-0.099,0.879-0.296c0.148-0.197,0.223-0.544,0.223-1.04c0-0.254-0.011-0.454-0.032-0.601
		c-0.021-0.146-0.068-0.285-0.141-0.416c-0.072-0.131-0.184-0.224-0.334-0.278c-0.15-0.055-0.349-0.082-0.595-0.082h-0.633V404.134z
		"/>
	<path style="fill:#FFFFFF;" d="M320.845,409.747v-9.715h3.035c1.688,0,2.531,0.93,2.531,2.789c0,0.504-0.066,0.935-0.199,1.292
		c-0.133,0.357-0.324,0.637-0.574,0.838c-0.25,0.201-0.533,0.346-0.85,0.434c-0.316,0.088-0.68,0.132-1.09,0.132h-0.879v4.23
		H320.845z M322.819,404.134h0.633c0.438,0,0.73-0.099,0.879-0.296c0.148-0.197,0.223-0.544,0.223-1.04
		c0-0.254-0.011-0.454-0.032-0.601c-0.021-0.146-0.068-0.285-0.141-0.416c-0.072-0.131-0.184-0.224-0.334-0.278
		c-0.15-0.055-0.349-0.082-0.595-0.082h-0.633V404.134z"/>
	<path style="fill:#FFFFFF;" d="M327.425,409.747v-9.715h1.963v9.715H327.425z"/>
	<path style="fill:#FFFFFF;" d="M330.852,409.747v-9.715h1.377l2.168,5.045v-5.045h1.641v9.715h-1.318l-2.18-5.367v5.367H330.852z"
		/>
	<path style="fill:#FFFFFF;" d="M339.97,409.882c-0.48,0-0.893-0.078-1.236-0.234c-0.344-0.156-0.617-0.385-0.82-0.686
		c-0.203-0.301-0.351-0.651-0.442-1.052c-0.092-0.4-0.138-0.866-0.138-1.397v-3.199c0-0.438,0.028-0.826,0.085-1.166
		c0.057-0.34,0.153-0.653,0.29-0.94c0.137-0.287,0.313-0.523,0.527-0.709c0.215-0.185,0.485-0.33,0.811-0.434
		c0.326-0.104,0.704-0.155,1.134-0.155c0.508,0,0.943,0.063,1.307,0.19c0.363,0.127,0.651,0.317,0.864,0.571
		c0.213,0.254,0.367,0.551,0.463,0.891c0.096,0.34,0.144,0.738,0.144,1.195v0.551h-1.916v-0.656c0-0.18-0.004-0.326-0.012-0.439
		s-0.027-0.232-0.059-0.354c-0.031-0.123-0.076-0.22-0.135-0.29c-0.059-0.07-0.14-0.128-0.243-0.173
		c-0.104-0.045-0.231-0.067-0.384-0.067c-0.16,0-0.295,0.028-0.404,0.085c-0.109,0.057-0.193,0.125-0.252,0.205
		c-0.059,0.08-0.104,0.192-0.138,0.337c-0.033,0.144-0.053,0.273-0.059,0.387c-0.006,0.113-0.009,0.262-0.009,0.445v4.213
		c0,0.473,0.064,0.832,0.193,1.078c0.129,0.246,0.369,0.369,0.721,0.369c0.355,0,0.603-0.132,0.741-0.396
		c0.139-0.264,0.208-0.64,0.208-1.128v-0.955h-0.955v-1.219h2.736v4.998h-1.295l-0.129-0.891
		C341.276,409.54,340.743,409.882,339.97,409.882z"/>
</g>
<linearGradient id="SVGID_00000036238571836401521920000009506729841250661041_" gradientUnits="userSpaceOnUse" x1="485.7009" y1="306.9162" x2="518.3123" y2="306.9162">
	<stop  offset="0" style="stop-color:#E39A65"/>
	<stop  offset="1" style="stop-color:#E95F8D"/>
</linearGradient>
<path style="fill:url(#SVGID_00000036238571836401521920000009506729841250661041_);" d="M502.007,316.505
	c-1.204,0-2.407-0.311-3.482-0.931l-11.736-6.776c-0.681-0.393-1.088-1.097-1.088-1.883c0-0.785,0.407-1.489,1.088-1.882
	l11.736-6.776c2.147-1.239,4.816-1.24,6.962,0l11.737,6.776c0.681,0.393,1.088,1.097,1.088,1.882c0,0.786-0.407,1.49-1.088,1.883
	l-11.737,6.776C504.414,316.194,503.211,316.505,502.007,316.505z M502.007,299.188c-0.883,0-1.765,0.227-2.552,0.681l-11.736,6.776
	c-0.136,0.079-0.156,0.204-0.156,0.27c0,0.067,0.021,0.192,0.156,0.272l11.737,6.776c0.001,0,0.001,0,0.001,0
	c1.572,0.908,3.527,0.908,5.1,0l11.738-6.776c0.136-0.079,0.156-0.204,0.156-0.272c0-0.066-0.021-0.191-0.156-0.27l-11.737-6.776
	C503.77,299.414,502.888,299.188,502.007,299.188z"/>
<linearGradient id="SVGID_00000051379222602661817810000000253885011745151378_" gradientUnits="userSpaceOnUse" x1="441.0496" y1="262.223" x2="495.8279" y2="262.223">
	<stop  offset="0" style="stop-color:#E39A65"/>
	<stop  offset="1" style="stop-color:#E95F8D"/>
</linearGradient>
<path style="fill:url(#SVGID_00000051379222602661817810000000253885011745151378_);" d="M468.439,278.054
	c-1.956,0-3.911-0.503-5.655-1.511l-20.199-11.662c-0.961-0.555-1.535-1.549-1.535-2.658c0-1.109,0.574-2.104,1.535-2.658
	l20.198-11.661c3.487-2.015,7.823-2.016,11.311,0l20.198,11.661c0.962,0.555,1.535,1.548,1.536,2.657c0,1.11-0.574,2.104-1.535,2.66
	l-20.198,11.661C472.35,277.551,470.395,278.054,468.439,278.054z M468.438,248.253c-1.634,0-3.268,0.421-4.726,1.262
	l-20.198,11.661c-0.545,0.315-0.604,0.837-0.604,1.047c0,0.21,0.059,0.732,0.604,1.047l20.199,11.662l0,0
	c2.916,1.682,6.535,1.682,9.451,0l20.197-11.661c0.546-0.315,0.604-0.838,0.604-1.048c0-0.21-0.059-0.731-0.604-1.047
	l-20.198-11.661C471.706,248.674,470.072,248.253,468.438,248.253z"/>
<linearGradient id="SVGID_00000034799198695854803960000004385051707981259167_" gradientUnits="userSpaceOnUse" x1="79.8269" y1="266.1253" x2="134.6042" y2="266.1253">
	<stop  offset="0" style="stop-color:#E39A65"/>
	<stop  offset="1" style="stop-color:#E95F8D"/>
</linearGradient>
<path style="fill:url(#SVGID_00000034799198695854803960000004385051707981259167_);" d="M107.216,281.956
	c-1.955,0-3.911-0.504-5.655-1.511l0,0l-20.198-11.662c-0.961-0.555-1.535-1.549-1.535-2.658c0-1.109,0.574-2.104,1.535-2.658
	l20.198-11.661c3.486-2.015,7.822-2.016,11.31,0l20.198,11.661c0.961,0.555,1.535,1.549,1.535,2.658
	c0,1.109-0.574,2.103-1.535,2.658l-20.198,11.662C111.128,281.452,109.172,281.956,107.216,281.956z M102.49,278.834
	c2.918,1.683,6.539,1.682,9.451,0l20.198-11.662c0.545-0.315,0.604-0.837,0.604-1.047c0-0.21-0.059-0.732-0.604-1.047
	l-20.198-11.661c-2.916-1.682-6.535-1.682-9.451,0l-20.198,11.661c-0.545,0.315-0.604,0.837-0.604,1.047
	c0,0.21,0.059,0.731,0.604,1.047L102.49,278.834z"/>
<linearGradient id="SVGID_00000017507120721622363810000014515262348098657690_" gradientUnits="userSpaceOnUse" x1="191.9705" y1="109.6444" x2="268.7449" y2="109.6444">
	<stop  offset="0" style="stop-color:#E39A65"/>
	<stop  offset="1" style="stop-color:#E95F8D"/>
</linearGradient>
<path style="fill:url(#SVGID_00000017507120721622363810000014515262348098657690_);" d="M230.358,131.669
	c-2.702,0-5.403-0.695-7.813-2.087l0,0l-28.596-16.51c-1.239-0.715-1.979-1.996-1.979-3.427c0-1.432,0.739-2.714,1.978-3.43
	l28.595-16.509c4.819-2.784,10.809-2.782,15.626,0l28.596,16.51c1.239,0.715,1.979,1.996,1.979,3.427
	c0,1.432-0.739,2.714-1.979,3.43l-28.595,16.509C235.762,130.974,233.059,131.669,230.358,131.669z M223.475,127.971
	c4.246,2.449,9.519,2.45,13.767,0l28.594-16.509c0.656-0.38,1.048-1.059,1.048-1.817c0-0.759-0.392-1.438-1.048-1.816l-28.596-16.51
	c-4.248-2.45-9.521-2.451-13.767,0l-28.594,16.509c-0.656,0.38-1.048,1.059-1.048,1.817c0,0.759,0.392,1.438,1.048,1.816
	L223.475,127.971z"/>
<g>
	<path style="opacity:0.6;fill:#020230;" d="M311.762,347.28l-144.431-83.387c-2.105-1.215-1.841-3.338,0.59-4.742l92.697-53.519
		c2.431-1.403,6.108-1.556,8.213-0.34l144.43,83.387c2.105,1.216,1.841,3.339-0.59,4.742l-92.697,53.518
		C317.544,348.344,313.867,348.496,311.762,347.28z"/>
	
		<linearGradient id="SVGID_00000127745308620105003280000004703430117616229042_" gradientUnits="userSpaceOnUse" x1="143.6013" y1="277.0616" x2="435.9597" y2="277.0616">
		<stop  offset="0" style="stop-color:#E39A65"/>
		<stop  offset="1" style="stop-color:#E95F8D"/>
	</linearGradient>
	<path style="fill:url(#SVGID_00000127745308620105003280000004703430117616229042_);" d="M315.071,362.335
		c-1.688,0-3.309-0.351-4.545-1.065l-164.837-95.169c-1.347-0.776-2.088-1.896-2.088-3.155c-0.001-1.445,1.006-2.854,2.76-3.868
		l112.364-65.832c3.082-1.78,7.61-1.951,10.31-0.392l164.837,95.17c1.347,0.776,2.088,1.898,2.088,3.155
		c0,1.445-1.006,2.854-2.761,3.867l-112.363,65.832C319.165,361.843,317.069,362.335,315.071,362.335z M264.512,193.657
		c-1.688,0-3.483,0.407-4.851,1.196l-112.363,65.832c-1.151,0.665-1.836,1.509-1.835,2.26c0,0.725,0.629,1.239,1.156,1.544
		l164.837,95.169l0,0c2.108,1.217,5.974,1.04,8.443-0.389l112.364-65.832c1.151-0.665,1.835-1.508,1.835-2.259
		c0-0.724-0.629-1.239-1.156-1.544l-164.837-95.17C267.165,193.923,265.873,193.657,264.512,193.657z"/>
	
		<radialGradient id="SVGID_00000026135462918514095340000018239964030561532595_" cx="305.0876" cy="60.6072" r="223.296" gradientUnits="userSpaceOnUse">
		<stop  offset="0" style="stop-color:#E39A65"/>
		<stop  offset="0.4742" style="stop-color:#A92FFB"/>
		<stop  offset="0.5947" style="stop-color:#891CFB"/>
		<stop  offset="0.7421" style="stop-color:#6507FA"/>
		<stop  offset="0.8016" style="stop-color:#0D0C6F"/>
	</radialGradient>
	<path style="fill:url(#SVGID_00000026135462918514095340000018239964030561532595_);" d="M451.631,148.881L307.769,65.822
		c-0.989-0.571-2.021-0.689-2.936-0.422v0l-0.001,0.001c-0.004,0.001-0.009,0.003-0.013,0.004l-2.664,0.928l0.938,0.222
		c-0.376,0.445-0.679,0.997-0.878,1.645l-32.534,105.631c-0.806,2.619,0.375,5.802,2.637,7.108l143.862,83.059
		c0.35,0.202,0.705,0.341,1.058,0.432l-0.356,0.776l2.544-0.894l-0.006-0.002c1.042-0.415,1.901-1.346,2.315-2.691l32.534-105.631
		C455.074,153.369,453.893,150.187,451.631,148.881z"/>
	
		<radialGradient id="SVGID_00000130643972956565032760000005414942828394582717_" cx="168.5149" cy="239.9302" r="244.1724" gradientUnits="userSpaceOnUse">
		<stop  offset="0" style="stop-color:#E39A65"/>
		<stop  offset="0.4742" style="stop-color:#A92FFB"/>
		<stop  offset="0.5679" style="stop-color:#891CFB"/>
		<stop  offset="0.6825" style="stop-color:#6507FA"/>
		<stop  offset="0.7381" style="stop-color:#0D0C6F"/>
	</radialGradient>
	<path style="fill:url(#SVGID_00000130643972956565032760000005414942828394582717_);" d="M411.03,267.942l0.051,0.061
		l-142.098-82.04c-2.09-1.207-5.742-1.055-8.155,0.338l-91.809,53.006l-3.061-1.169l0.86,4.295l0.004-0.002
		c0.114,0.646,0.566,1.251,1.378,1.72l143.412,82.799c2.091,1.207,5.742,1.055,8.155-0.338l92.043-53.141
		c1.136-0.656,1.789-1.469,1.951-2.273l0.005,0.006l0.878-4.18L411.03,267.942z"/>
	
		<radialGradient id="SVGID_00000127764939029792924590000016034418252499682704_" cx="190.9722" cy="190.9207" r="218.96" gradientUnits="userSpaceOnUse">
		<stop  offset="0" style="stop-color:#E39A65"/>
		<stop  offset="0.4742" style="stop-color:#A92FFB"/>
		<stop  offset="0.5875" style="stop-color:#891CFB"/>
		<stop  offset="0.7262" style="stop-color:#6507FA"/>
		<stop  offset="1" style="stop-color:#3919BB"/>
	</radialGradient>
	<path style="fill:url(#SVGID_00000127764939029792924590000016034418252499682704_);" d="M311.762,323.17l-144.431-83.387
		c-2.105-1.215-1.841-3.338,0.59-4.742l92.697-53.518c2.431-1.403,6.108-1.556,8.213-0.34l144.43,83.387
		c2.105,1.215,1.841,3.339-0.59,4.742l-92.697,53.518C317.544,324.233,313.867,324.386,311.762,323.17z"/>
	<path style="fill:#FFFFFF;" d="M412.672,268.187l-92.697,53.518c-2.431,1.404-6.108,1.556-8.213,0.341l-144.431-83.387
		c-0.717-0.414-1.138-0.937-1.313-1.498c-0.279,0.968,0.129,1.939,1.313,2.622l144.431,83.387c2.105,1.215,5.782,1.063,8.213-0.34
		l92.697-53.518c1.603-0.925,2.242-2.16,1.903-3.244C414.358,266.821,413.736,267.573,412.672,268.187z"/>
	<g style="opacity:0.4;">
		<path style="fill:#06033E;" d="M236.223,226.251l-4.876-2.815c-0.391-0.226-0.342-0.621,0.11-0.882l5.756-3.323
			c0.452-0.261,1.136-0.289,1.527-0.063l4.876,2.815c0.391,0.226,0.342,0.621-0.11,0.882l-5.755,3.323
			C237.298,226.449,236.615,226.477,236.223,226.251z"/>
		<path style="fill:#06033E;" d="M243.753,230.599l-4.876-2.815c-0.392-0.226-0.342-0.621,0.11-0.882l5.756-3.323
			c0.452-0.261,1.136-0.289,1.527-0.063l4.876,2.815c0.392,0.226,0.342,0.621-0.11,0.882l-5.755,3.323
			C244.829,230.796,244.145,230.825,243.753,230.599z"/>
		<path style="fill:#06033E;" d="M251.284,234.946l-4.876-2.815c-0.391-0.226-0.342-0.621,0.11-0.882l5.755-3.323
			c0.452-0.261,1.136-0.289,1.527-0.063l4.876,2.815c0.392,0.226,0.342,0.621-0.11,0.882l-5.756,3.323
			C252.359,235.144,251.675,235.172,251.284,234.946z"/>
		<path style="fill:#06033E;" d="M261.698,231.356l-4.876-2.815c-0.392-0.226-0.342-0.621,0.11-0.882l4.832-2.789
			c0.452-0.261,1.136-0.289,1.527-0.063l4.876,2.815c0.392,0.226,0.342,0.621-0.11,0.882l-4.832,2.789
			C262.774,231.554,262.09,231.582,261.698,231.356z"/>
		<path style="fill:#06033E;" d="M269.229,235.704l-4.876-2.815c-0.391-0.226-0.342-0.621,0.11-0.882l4.832-2.789
			c0.452-0.261,1.136-0.289,1.527-0.063l4.876,2.815c0.392,0.226,0.342,0.621-0.11,0.882l-4.831,2.789
			C270.304,235.901,269.62,235.93,269.229,235.704z"/>
		<path style="fill:#06033E;" d="M276.759,240.051l-4.876-2.815c-0.391-0.226-0.342-0.621,0.11-0.882l4.831-2.789
			c0.452-0.261,1.136-0.289,1.527-0.063l4.876,2.815c0.391,0.226,0.342,0.621-0.11,0.882l-4.832,2.789
			C277.834,240.249,277.15,240.277,276.759,240.051z"/>
		<path style="fill:#06033E;" d="M284.289,244.399l-4.876-2.815c-0.391-0.226-0.342-0.621,0.11-0.882l4.831-2.789
			c0.452-0.261,1.136-0.289,1.527-0.063l4.876,2.815c0.392,0.226,0.342,0.621-0.11,0.882l-4.832,2.789
			C285.365,244.596,284.681,244.625,284.289,244.399z"/>
		<path style="fill:#06033E;" d="M291.819,248.746l-4.876-2.815c-0.392-0.226-0.342-0.621,0.11-0.882l4.832-2.789
			c0.452-0.261,1.136-0.289,1.527-0.063l4.876,2.815c0.392,0.226,0.342,0.621-0.11,0.882l-4.831,2.789
			C292.895,248.944,292.211,248.972,291.819,248.746z"/>
		<path style="fill:#06033E;" d="M299.35,253.094l-4.876-2.815c-0.392-0.226-0.342-0.621,0.11-0.882l4.831-2.789
			c0.452-0.261,1.136-0.289,1.527-0.063l4.876,2.815c0.392,0.226,0.342,0.621-0.11,0.882l-4.831,2.789
			C300.425,253.292,299.741,253.32,299.35,253.094z"/>
		<path style="fill:#06033E;" d="M306.88,257.442l-4.876-2.815c-0.392-0.226-0.342-0.621,0.11-0.882l4.831-2.789
			c0.452-0.261,1.136-0.289,1.528-0.063l4.876,2.815c0.391,0.226,0.342,0.621-0.11,0.882l-4.831,2.789
			C307.955,257.639,307.271,257.668,306.88,257.442z"/>
		<path style="fill:#06033E;" d="M314.41,261.789l-4.876-2.815c-0.392-0.226-0.342-0.621,0.11-0.882l4.831-2.789
			c0.452-0.261,1.136-0.289,1.527-0.063l4.876,2.815c0.391,0.226,0.342,0.621-0.11,0.882l-4.831,2.789
			C315.486,261.987,314.802,262.015,314.41,261.789z"/>
		<path style="fill:#06033E;" d="M321.94,266.137l-4.876-2.815c-0.392-0.226-0.342-0.621,0.11-0.882l4.831-2.789
			c0.452-0.261,1.136-0.289,1.527-0.063l4.876,2.815c0.392,0.226,0.342,0.621-0.11,0.882l-4.832,2.789
			C323.016,266.335,322.332,266.363,321.94,266.137z"/>
		<path style="fill:#06033E;" d="M329.471,270.484l-4.876-2.815c-0.392-0.226-0.342-0.621,0.11-0.882l4.832-2.789
			c0.452-0.261,1.136-0.289,1.527-0.063l4.876,2.815c0.392,0.226,0.342,0.621-0.11,0.882l-4.832,2.79
			C330.546,270.682,329.862,270.71,329.471,270.484z"/>
		<path style="fill:#06033E;" d="M272.794,229.298l-4.876-2.815c-0.392-0.226-0.342-0.621,0.11-0.882l4.832-2.789
			c0.452-0.261,1.136-0.289,1.527-0.063l4.876,2.815c0.392,0.226,0.342,0.621-0.11,0.882l-4.831,2.789
			C273.869,229.495,273.185,229.524,272.794,229.298z"/>
		<path style="fill:#06033E;" d="M265.151,224.885l-4.876-2.815c-0.392-0.226-0.342-0.621,0.11-0.882l4.832-2.79
			c0.452-0.261,1.136-0.289,1.527-0.063l4.876,2.815c0.392,0.226,0.342,0.621-0.11,0.882l-4.832,2.789
			C266.226,225.083,265.543,225.111,265.151,224.885z"/>
		<path style="fill:#06033E;" d="M257.496,220.465l-10.502-6.063c-0.391-0.226-0.342-0.621,0.11-0.882l4.831-2.789
			c0.452-0.261,1.136-0.289,1.527-0.063l10.502,6.063c0.391,0.226,0.342,0.621-0.11,0.882l-4.832,2.789
			C258.571,220.663,257.887,220.691,257.496,220.465z"/>
		<path style="fill:#06033E;" d="M262.847,215.09l-8.523-4.921c-0.391-0.226-0.342-0.621,0.11-0.882l4.831-2.79
			c0.452-0.261,1.136-0.289,1.527-0.063l8.523,4.921c0.392,0.226,0.342,0.621-0.11,0.882l-4.831,2.789
			C263.922,215.288,263.238,215.317,262.847,215.09z"/>
		<path style="fill:#06033E;" d="M280.324,233.645l-4.876-2.815c-0.392-0.226-0.342-0.621,0.11-0.882l4.831-2.79
			c0.452-0.261,1.136-0.289,1.528-0.063l4.876,2.815c0.392,0.226,0.342,0.621-0.11,0.882l-4.831,2.789
			C281.399,233.843,280.716,233.871,280.324,233.645z"/>
		<path style="fill:#06033E;" d="M287.854,237.993l-4.876-2.815c-0.391-0.226-0.342-0.621,0.11-0.882l4.831-2.79
			c0.452-0.261,1.136-0.289,1.527-0.063l4.876,2.815c0.392,0.226,0.342,0.621-0.11,0.882l-4.831,2.789
			C288.93,238.191,288.246,238.219,287.854,237.993z"/>
		<path style="fill:#06033E;" d="M295.384,242.34l-4.876-2.815c-0.392-0.226-0.342-0.621,0.11-0.882l4.831-2.789
			c0.452-0.261,1.136-0.289,1.527-0.063l4.876,2.815c0.392,0.226,0.342,0.621-0.11,0.882l-4.831,2.789
			C296.46,242.538,295.776,242.566,295.384,242.34z"/>
		<path style="fill:#06033E;" d="M302.915,246.688l-4.876-2.815c-0.392-0.226-0.342-0.621,0.11-0.882l4.832-2.789
			c0.452-0.261,1.136-0.289,1.527-0.063l4.876,2.815c0.392,0.226,0.342,0.621-0.11,0.882l-4.832,2.789
			C303.99,246.886,303.306,246.914,302.915,246.688z"/>
		<path style="fill:#06033E;" d="M310.445,251.036l-4.876-2.815c-0.392-0.226-0.342-0.621,0.11-0.882l4.832-2.789
			c0.452-0.261,1.136-0.289,1.527-0.063l4.876,2.815c0.392,0.226,0.342,0.621-0.11,0.882l-4.831,2.789
			C311.52,251.233,310.837,251.262,310.445,251.036z"/>
		<path style="fill:#06033E;" d="M317.975,255.383l-4.876-2.815c-0.391-0.226-0.342-0.621,0.11-0.882l4.832-2.789
			c0.452-0.261,1.136-0.289,1.527-0.063l4.876,2.815c0.391,0.226,0.342,0.621-0.11,0.882l-4.831,2.789
			C319.051,255.581,318.367,255.609,317.975,255.383z"/>
		<path style="fill:#06033E;" d="M325.506,259.731l-4.876-2.815c-0.391-0.226-0.342-0.621,0.11-0.882l4.831-2.789
			c0.452-0.261,1.136-0.289,1.527-0.063l4.876,2.815c0.391,0.226,0.342,0.621-0.11,0.882l-4.832,2.789
			C326.581,259.928,325.897,259.957,325.506,259.731z"/>
		<path style="fill:#06033E;" d="M333.036,264.078l-4.876-2.815c-0.392-0.226-0.342-0.621,0.11-0.882l4.831-2.789
			c0.452-0.261,1.136-0.289,1.527-0.063l4.876,2.815c0.392,0.226,0.342,0.621-0.11,0.882l-4.832,2.789
			C334.111,264.276,333.427,264.305,333.036,264.078z"/>
		<path style="fill:#06033E;" d="M340.566,268.426l-4.876-2.815c-0.392-0.226-0.342-0.621,0.11-0.882l4.832-2.789
			c0.452-0.261,1.136-0.289,1.527-0.063l4.876,2.815c0.392,0.226,0.342,0.621-0.11,0.882l-4.832,2.789
			C341.642,268.624,340.958,268.652,340.566,268.426z"/>
		<path style="fill:#06033E;" d="M353.953,276.155l-10.639-6.143c-0.392-0.226-0.342-0.621,0.11-0.882l4.831-2.79
			c0.452-0.261,1.136-0.289,1.527-0.063l10.639,6.143c0.391,0.226,0.342,0.621-0.11,0.882l-4.831,2.789
			C355.029,276.353,354.345,276.381,353.953,276.155z"/>
		<path style="fill:#06033E;" d="M368.614,267.691l-8.98-5.185c-0.392-0.226-0.342-0.621,0.11-0.882l4.831-2.789
			c0.452-0.261,1.136-0.289,1.527-0.063l8.98,5.185c0.392,0.226,0.342,0.621-0.11,0.882l-4.831,2.789
			C369.689,267.889,369.005,267.917,368.614,267.691z"/>
		<path style="fill:#06033E;" d="M293.511,232.795l-4.876-2.815c-0.391-0.226-0.342-0.621,0.11-0.882l4.832-2.789
			c0.452-0.261,1.136-0.289,1.527-0.063l4.876,2.815c0.391,0.226,0.342,0.621-0.11,0.882l-4.831,2.789
			C294.586,232.992,293.903,233.021,293.511,232.795z"/>
		<path style="fill:#06033E;" d="M285.793,228.339l-4.876-2.815c-0.392-0.226-0.342-0.621,0.11-0.882l4.831-2.789
			c0.452-0.261,1.136-0.289,1.527-0.063l4.876,2.815c0.392,0.226,0.342,0.621-0.11,0.882l-4.831,2.789
			C286.869,228.536,286.185,228.565,285.793,228.339z"/>
		<path style="fill:#06033E;" d="M278.076,223.883l-4.876-2.815c-0.392-0.226-0.342-0.621,0.11-0.882l4.832-2.789
			c0.452-0.261,1.136-0.289,1.527-0.063l4.876,2.815c0.392,0.226,0.342,0.621-0.11,0.882l-4.831,2.789
			C279.151,224.081,278.467,224.109,278.076,223.883z"/>
		<path style="fill:#06033E;" d="M270.358,219.427l-4.876-2.815c-0.392-0.226-0.342-0.621,0.11-0.882l4.832-2.789
			c0.452-0.261,1.136-0.289,1.527-0.063l4.876,2.815c0.392,0.226,0.342,0.621-0.11,0.882l-4.831,2.789
			C271.434,219.625,270.75,219.653,270.358,219.427z"/>
		<path style="fill:#06033E;" d="M301.041,237.142l-4.876-2.815c-0.391-0.226-0.342-0.621,0.11-0.882l4.831-2.79
			c0.452-0.261,1.136-0.289,1.527-0.063l4.876,2.815c0.391,0.226,0.342,0.621-0.11,0.882l-4.832,2.79
			C302.117,237.34,301.433,237.368,301.041,237.142z"/>
		<path style="fill:#06033E;" d="M308.572,241.49l-4.876-2.815c-0.392-0.226-0.342-0.621,0.11-0.882l4.831-2.789
			c0.452-0.261,1.136-0.289,1.527-0.063l4.876,2.815c0.392,0.226,0.342,0.621-0.11,0.882l-4.832,2.79
			C309.647,241.688,308.963,241.716,308.572,241.49z"/>
		<path style="fill:#06033E;" d="M316.102,245.837l-4.876-2.815c-0.392-0.226-0.342-0.621,0.11-0.882l4.832-2.79
			c0.452-0.261,1.136-0.289,1.527-0.063l4.876,2.815c0.392,0.226,0.342,0.621-0.11,0.882l-4.831,2.789
			C317.177,246.035,316.493,246.063,316.102,245.837z"/>
		<path style="fill:#06033E;" d="M323.632,250.185l-4.876-2.815c-0.392-0.226-0.342-0.621,0.11-0.882l4.831-2.79
			c0.452-0.261,1.136-0.289,1.527-0.063l4.876,2.815c0.392,0.226,0.342,0.621-0.11,0.882l-4.831,2.79
			C324.707,250.383,324.024,250.411,323.632,250.185z"/>
		<path style="fill:#06033E;" d="M331.162,254.533l-4.876-2.815c-0.391-0.226-0.342-0.621,0.11-0.882l4.831-2.789
			c0.452-0.261,1.136-0.289,1.528-0.063l4.876,2.815c0.391,0.226,0.342,0.621-0.11,0.882l-4.831,2.79
			C332.238,254.73,331.554,254.759,331.162,254.533z"/>
		<path style="fill:#06033E;" d="M338.693,258.88l-4.876-2.815c-0.392-0.226-0.342-0.621,0.11-0.882l4.831-2.79
			c0.452-0.261,1.136-0.289,1.527-0.063l4.876,2.815c0.392,0.226,0.342,0.621-0.11,0.882l-4.831,2.789
			C339.768,259.078,339.084,259.106,338.693,258.88z"/>
		<path style="fill:#06033E;" d="M346.223,263.228l-4.876-2.815c-0.392-0.226-0.342-0.621,0.11-0.882l4.831-2.789
			c0.452-0.261,1.136-0.289,1.527-0.063l4.876,2.815c0.392,0.226,0.342,0.621-0.11,0.882l-4.832,2.789
			C347.298,263.426,346.615,263.454,346.223,263.228z"/>
		<path style="fill:#06033E;" d="M353.753,267.575l-4.876-2.815c-0.392-0.226-0.342-0.621,0.11-0.882l4.832-2.789
			c0.452-0.261,1.136-0.289,1.527-0.063l4.876,2.815c0.392,0.226,0.342,0.621-0.11,0.882l-4.832,2.789
			C354.829,267.773,354.145,267.801,353.753,267.575z"/>
		<path style="fill:#06033E;" d="M361.284,271.923l-4.876-2.815c-0.391-0.226-0.342-0.621,0.11-0.882l4.832-2.789
			c0.452-0.261,1.136-0.289,1.527-0.063l4.876,2.815c0.391,0.226,0.342,0.621-0.11,0.882l-4.831,2.79
			C362.359,272.121,361.675,272.149,361.284,271.923z"/>
		<path style="fill:#06033E;" d="M289.546,222.041l-4.876-2.815c-0.392-0.226-0.342-0.621,0.11-0.882l4.832-2.789
			c0.452-0.261,1.136-0.289,1.527-0.063l4.876,2.815c0.392,0.226,0.342,0.621-0.11,0.882l-4.832,2.789
			C290.621,222.239,289.937,222.267,289.546,222.041z"/>
		<path style="fill:#06033E;" d="M282.053,217.715l-4.876-2.815c-0.392-0.226-0.342-0.621,0.11-0.882l4.832-2.79
			c0.452-0.261,1.136-0.289,1.527-0.063l4.876,2.815c0.392,0.226,0.342,0.621-0.11,0.882l-4.832,2.789
			C283.129,217.913,282.445,217.941,282.053,217.715z"/>
		<path style="fill:#06033E;" d="M274.56,213.389l-4.876-2.815c-0.392-0.226-0.342-0.621,0.11-0.882l4.832-2.79
			c0.452-0.261,1.136-0.289,1.527-0.063l4.876,2.815c0.392,0.226,0.342,0.621-0.11,0.882l-4.832,2.79
			C275.636,213.587,274.952,213.615,274.56,213.389z"/>
		<path style="fill:#06033E;" d="M267.068,209.063l-4.876-2.815c-0.392-0.226-0.342-0.621,0.11-0.882l4.832-2.789
			c0.452-0.261,1.136-0.289,1.527-0.063l4.876,2.815c0.392,0.226,0.342,0.621-0.11,0.882L268.595,209
			C268.143,209.261,267.459,209.289,267.068,209.063z"/>
		<path style="fill:#06033E;" d="M274.772,204.615l-4.876-2.815c-0.392-0.226-0.342-0.621,0.11-0.882l1.597-0.922
			c0.452-0.261,1.136-0.289,1.527-0.063l4.876,2.815c0.391,0.226,0.342,0.621-0.11,0.882l-1.597,0.922
			C275.848,204.812,275.164,204.841,274.772,204.615z"/>
		<path style="fill:#06033E;" d="M284.551,210.26l-4.876-2.815c-0.391-0.226-0.342-0.621,0.11-0.882l1.597-0.922
			c0.452-0.261,1.136-0.289,1.527-0.063l4.876,2.815c0.392,0.226,0.342,0.621-0.11,0.882l-1.597,0.922
			C285.626,210.458,284.942,210.486,284.551,210.26z"/>
		<path style="fill:#06033E;" d="M292.012,214.568l-4.876-2.815c-0.392-0.226-0.342-0.621,0.11-0.882l1.597-0.922
			c0.452-0.261,1.136-0.289,1.527-0.063l4.876,2.815c0.392,0.226,0.342,0.621-0.11,0.882l-1.597,0.922
			C293.087,214.766,292.404,214.794,292.012,214.568z"/>
		<path style="fill:#06033E;" d="M299.474,218.876l-4.876-2.815c-0.392-0.226-0.342-0.621,0.11-0.882l1.597-0.922
			c0.452-0.261,1.136-0.289,1.527-0.063l4.876,2.815c0.391,0.226,0.342,0.621-0.11,0.882l-1.597,0.922
			C300.549,219.074,299.865,219.102,299.474,218.876z"/>
		<path style="fill:#06033E;" d="M306.935,223.184l-4.876-2.815c-0.392-0.226-0.342-0.621,0.11-0.882l1.597-0.922
			c0.452-0.261,1.136-0.289,1.527-0.063l4.876,2.815c0.392,0.226,0.342,0.621-0.11,0.882l-1.597,0.922
			C308.011,223.382,307.327,223.41,306.935,223.184z"/>
		<path style="fill:#06033E;" d="M348.592,247.235l-4.876-2.815c-0.392-0.226-0.342-0.621,0.11-0.882l1.597-0.922
			c0.452-0.261,1.136-0.289,1.527-0.063l4.876,2.815c0.392,0.226,0.342,0.621-0.11,0.882l-1.597,0.922
			C349.668,247.432,348.984,247.461,348.592,247.235z"/>
		<path style="fill:#06033E;" d="M356.054,251.542l-4.876-2.815c-0.392-0.226-0.342-0.621,0.11-0.882l1.597-0.922
			c0.452-0.261,1.136-0.289,1.527-0.063l4.876,2.815c0.392,0.226,0.342,0.621-0.11,0.882l-1.597,0.922
			C357.129,251.74,356.445,251.769,356.054,251.542z"/>
		<path style="fill:#06033E;" d="M363.515,255.85l-4.876-2.815c-0.392-0.226-0.342-0.621,0.11-0.882l1.597-0.922
			c0.452-0.261,1.136-0.289,1.527-0.063l4.876,2.815c0.392,0.226,0.342,0.621-0.11,0.882l-1.597,0.922
			C364.591,256.048,363.907,256.077,363.515,255.85z"/>
		<path style="fill:#06033E;" d="M370.977,260.158l-4.876-2.815c-0.392-0.226-0.342-0.621,0.11-0.882l1.597-0.922
			c0.452-0.261,1.136-0.289,1.527-0.063l4.876,2.815c0.391,0.226,0.342,0.621-0.11,0.882l-1.597,0.922
			C372.052,260.356,371.368,260.384,370.977,260.158z"/>
		<path style="fill:#06033E;" d="M297.076,226.389l-4.876-2.815c-0.392-0.226-0.342-0.621,0.11-0.882l4.832-2.789
			c0.452-0.261,1.136-0.289,1.527-0.063l4.876,2.815c0.392,0.226,0.342,0.621-0.11,0.882l-4.831,2.789
			C298.152,226.586,297.468,226.615,297.076,226.389z"/>
		<path style="fill:#06033E;" d="M304.607,230.736l-4.876-2.815c-0.391-0.226-0.342-0.621,0.11-0.882l4.831-2.789
			c0.452-0.261,1.136-0.289,1.528-0.063l4.876,2.815c0.392,0.226,0.342,0.621-0.11,0.882l-4.831,2.789
			C305.682,230.934,304.998,230.962,304.607,230.736z"/>
		<path style="fill:#06033E;" d="M312.137,235.084l-4.876-2.815c-0.391-0.226-0.342-0.621,0.11-0.882l4.831-2.789
			c0.452-0.261,1.136-0.289,1.527-0.063l4.876,2.815c0.392,0.226,0.343,0.621-0.11,0.882l-4.831,2.79
			C313.212,235.282,312.528,235.31,312.137,235.084z"/>
		<path style="fill:#06033E;" d="M319.667,239.432l-4.876-2.815c-0.392-0.226-0.342-0.621,0.11-0.882l4.831-2.789
			c0.452-0.261,1.136-0.289,1.527-0.063l4.876,2.815c0.392,0.226,0.342,0.621-0.11,0.882l-4.831,2.789
			C320.742,239.629,320.059,239.658,319.667,239.432z"/>
		<path style="fill:#06033E;" d="M327.197,243.779l-4.876-2.815c-0.392-0.226-0.342-0.621,0.11-0.882l4.832-2.789
			c0.452-0.261,1.136-0.289,1.527-0.063l4.876,2.815c0.392,0.226,0.342,0.621-0.11,0.882l-4.832,2.79
			C328.273,243.977,327.589,244.005,327.197,243.779z"/>
		<path style="fill:#06033E;" d="M334.728,248.127l-4.876-2.815c-0.392-0.226-0.342-0.621,0.11-0.882l4.832-2.789
			c0.452-0.261,1.136-0.289,1.527-0.063l4.876,2.815c0.392,0.226,0.342,0.621-0.11,0.882l-4.831,2.79
			C335.803,248.324,335.119,248.353,334.728,248.127z"/>
		<path style="fill:#06033E;" d="M342.258,252.474l-4.876-2.815c-0.392-0.226-0.342-0.621,0.11-0.882l4.832-2.789
			c0.452-0.261,1.136-0.289,1.527-0.063l4.876,2.815c0.391,0.226,0.342,0.621-0.11,0.882l-4.831,2.789
			C343.333,252.672,342.649,252.7,342.258,252.474z"/>
		<path style="fill:#06033E;" d="M349.788,256.822l-4.876-2.815c-0.392-0.226-0.342-0.621,0.11-0.882l4.831-2.789
			c0.452-0.261,1.136-0.289,1.527-0.063l4.876,2.815c0.391,0.226,0.342,0.621-0.11,0.882l-4.832,2.79
			C350.863,257.02,350.18,257.048,349.788,256.822z"/>
		<path style="fill:#06033E;" d="M357.318,261.169l-4.876-2.815c-0.392-0.226-0.342-0.621,0.11-0.882l4.831-2.789
			c0.452-0.261,1.136-0.289,1.527-0.063l4.876,2.815c0.392,0.226,0.342,0.621-0.11,0.882l-4.832,2.789
			C358.394,261.367,357.71,261.396,357.318,261.169z"/>
		<path style="fill:#06033E;" d="M254.024,226.925l-14.361-8.291c-0.392-0.226-0.342-0.621,0.11-0.882l4.831-2.789
			c0.452-0.261,1.136-0.289,1.527-0.063l14.361,8.291c0.392,0.226,0.342,0.621-0.11,0.882l-4.831,2.789
			C255.1,227.123,254.416,227.152,254.024,226.925z"/>
		<path style="fill:#06033E;" d="M346.536,280.337l-14.361-8.291c-0.392-0.226-0.342-0.621,0.11-0.882l4.831-2.789
			c0.452-0.261,1.136-0.289,1.527-0.063l14.361,8.291c0.391,0.226,0.342,0.621-0.11,0.882l-4.831,2.789
			C347.611,280.534,346.927,280.563,346.536,280.337z"/>
		<path style="fill:#06033E;" d="M316.421,272.553l-4.876-2.815c-0.392-0.226-0.342-0.621,0.11-0.882l5.756-3.323
			c0.452-0.261,1.136-0.289,1.527-0.063l4.876,2.815c0.392,0.226,0.342,0.621-0.11,0.882l-5.756,3.323
			C317.496,272.751,316.813,272.78,316.421,272.553z"/>
		<path style="fill:#06033E;" d="M261.736,240.981l-7.798-4.502c-0.391-0.226-0.342-0.621,0.11-0.882l5.756-3.323
			c0.452-0.261,1.136-0.289,1.528-0.063l7.798,4.502c0.392,0.226,0.342,0.621-0.11,0.882l-5.756,3.323
			C262.811,241.179,262.128,241.207,261.736,240.981z"/>
		<path style="fill:#06033E;" d="M309.165,268.365l-7.798-4.502c-0.392-0.226-0.342-0.621,0.11-0.882l5.756-3.323
			c0.452-0.261,1.136-0.289,1.527-0.063l7.798,4.502c0.392,0.226,0.342,0.621-0.11,0.882l-5.756,3.323
			C310.241,268.562,309.557,268.591,309.165,268.365z"/>
		<path style="fill:#06033E;" d="M272.601,247.254l-7.798-4.502c-0.391-0.226-0.342-0.621,0.11-0.882l5.756-3.323
			c0.452-0.261,1.136-0.289,1.527-0.063l7.798,4.502c0.392,0.226,0.342,0.621-0.11,0.882l-5.755,3.323
			C273.676,247.451,272.992,247.48,272.601,247.254z"/>
		<path style="fill:#06033E;" d="M272.248,238.514l33.905,19.575c0.421,0.243,0.421,0.637,0,0.88l-5.869,3.388
			c-0.421,0.243-1.103,0.243-1.523,0l-33.905-19.575L272.248,238.514z"/>
		<path style="fill:#06033E;" d="M337.467,280.436l5.432,3.136c0.321,0.185,0.281,0.509-0.09,0.723l-2.354,1.359
			c-0.371,0.214-0.931,0.237-1.252,0.052l-5.431-3.136c-0.321-0.185-0.281-0.509,0.09-0.723l2.354-1.359
			C336.585,280.274,337.146,280.251,337.467,280.436z"/>
		<path style="fill:#06033E;" d="M329.874,276.052l5.431,3.136c0.321,0.185,0.281,0.509-0.09,0.723l-2.354,1.359
			c-0.371,0.214-0.931,0.237-1.252,0.052l-5.432-3.136c-0.321-0.185-0.281-0.509,0.09-0.723l2.354-1.359
			C328.993,275.891,329.553,275.867,329.874,276.052z"/>
		<path style="fill:#06033E;" d="M322.344,271.705l5.432,3.136c0.321,0.185,0.281,0.509-0.09,0.723l-2.355,1.359
			c-0.37,0.214-0.931,0.237-1.252,0.052l-5.431-3.136c-0.321-0.185-0.281-0.509,0.09-0.723l2.354-1.359
			C321.462,271.543,322.023,271.52,322.344,271.705z"/>
		<path style="fill:#06033E;" d="M334.033,273.652l5.432,3.136c0.321,0.185,0.281,0.509-0.09,0.723l-2.354,1.359
			c-0.371,0.214-0.931,0.237-1.252,0.052l-5.432-3.136c-0.321-0.185-0.281-0.509,0.09-0.723l2.355-1.359
			C333.151,273.49,333.712,273.466,334.033,273.652z"/>
	</g>
	<g style="opacity:0.4;">
		<path style="fill:#06033E;" d="M236.223,226.251l-4.876-2.815c-0.391-0.226-0.342-0.621,0.11-0.882l5.756-3.323
			c0.452-0.261,1.136-0.289,1.527-0.063l4.876,2.815c0.391,0.226,0.342,0.621-0.11,0.882l-5.755,3.323
			C237.298,226.449,236.615,226.477,236.223,226.251z"/>
		<path style="fill:#06033E;" d="M243.753,230.599l-4.876-2.815c-0.392-0.226-0.342-0.621,0.11-0.882l5.756-3.323
			c0.452-0.261,1.136-0.289,1.527-0.063l4.876,2.815c0.392,0.226,0.342,0.621-0.11,0.882l-5.755,3.323
			C244.829,230.796,244.145,230.825,243.753,230.599z"/>
		<path style="fill:#06033E;" d="M251.284,234.946l-4.876-2.815c-0.391-0.226-0.342-0.621,0.11-0.882l5.755-3.323
			c0.452-0.261,1.136-0.289,1.527-0.063l4.876,2.815c0.392,0.226,0.342,0.621-0.11,0.882l-5.756,3.323
			C252.359,235.144,251.675,235.172,251.284,234.946z"/>
		<path style="fill:#06033E;" d="M261.698,231.356l-4.876-2.815c-0.392-0.226-0.342-0.621,0.11-0.882l4.832-2.789
			c0.452-0.261,1.136-0.289,1.527-0.063l4.876,2.815c0.392,0.226,0.342,0.621-0.11,0.882l-4.832,2.789
			C262.774,231.554,262.09,231.582,261.698,231.356z"/>
		<path style="fill:#06033E;" d="M269.229,235.704l-4.876-2.815c-0.391-0.226-0.342-0.621,0.11-0.882l4.832-2.789
			c0.452-0.261,1.136-0.289,1.527-0.063l4.876,2.815c0.392,0.226,0.342,0.621-0.11,0.882l-4.831,2.789
			C270.304,235.901,269.62,235.93,269.229,235.704z"/>
		<path style="fill:#06033E;" d="M276.759,240.051l-4.876-2.815c-0.391-0.226-0.342-0.621,0.11-0.882l4.831-2.789
			c0.452-0.261,1.136-0.289,1.527-0.063l4.876,2.815c0.391,0.226,0.342,0.621-0.11,0.882l-4.832,2.789
			C277.834,240.249,277.15,240.277,276.759,240.051z"/>
		<path style="fill:#06033E;" d="M284.289,244.399l-4.876-2.815c-0.391-0.226-0.342-0.621,0.11-0.882l4.831-2.789
			c0.452-0.261,1.136-0.289,1.527-0.063l4.876,2.815c0.392,0.226,0.342,0.621-0.11,0.882l-4.832,2.789
			C285.365,244.596,284.681,244.625,284.289,244.399z"/>
		<path style="fill:#06033E;" d="M291.819,248.746l-4.876-2.815c-0.392-0.226-0.342-0.621,0.11-0.882l4.832-2.789
			c0.452-0.261,1.136-0.289,1.527-0.063l4.876,2.815c0.392,0.226,0.342,0.621-0.11,0.882l-4.831,2.789
			C292.895,248.944,292.211,248.972,291.819,248.746z"/>
		<path style="fill:#06033E;" d="M299.35,253.094l-4.876-2.815c-0.392-0.226-0.342-0.621,0.11-0.882l4.831-2.789
			c0.452-0.261,1.136-0.289,1.527-0.063l4.876,2.815c0.392,0.226,0.342,0.621-0.11,0.882l-4.831,2.789
			C300.425,253.292,299.741,253.32,299.35,253.094z"/>
		<path style="fill:#06033E;" d="M306.88,257.442l-4.876-2.815c-0.392-0.226-0.342-0.621,0.11-0.882l4.831-2.789
			c0.452-0.261,1.136-0.289,1.528-0.063l4.876,2.815c0.391,0.226,0.342,0.621-0.11,0.882l-4.831,2.789
			C307.955,257.639,307.271,257.668,306.88,257.442z"/>
		<path style="fill:#06033E;" d="M314.41,261.789l-4.876-2.815c-0.392-0.226-0.342-0.621,0.11-0.882l4.831-2.789
			c0.452-0.261,1.136-0.289,1.527-0.063l4.876,2.815c0.391,0.226,0.342,0.621-0.11,0.882l-4.831,2.789
			C315.486,261.987,314.802,262.015,314.41,261.789z"/>
		<path style="fill:#06033E;" d="M321.94,266.137l-4.876-2.815c-0.392-0.226-0.342-0.621,0.11-0.882l4.831-2.789
			c0.452-0.261,1.136-0.289,1.527-0.063l4.876,2.815c0.392,0.226,0.342,0.621-0.11,0.882l-4.832,2.789
			C323.016,266.335,322.332,266.363,321.94,266.137z"/>
		<path style="fill:#06033E;" d="M329.471,270.484l-4.876-2.815c-0.392-0.226-0.342-0.621,0.11-0.882l4.832-2.789
			c0.452-0.261,1.136-0.289,1.527-0.063l4.876,2.815c0.392,0.226,0.342,0.621-0.11,0.882l-4.832,2.79
			C330.546,270.682,329.862,270.71,329.471,270.484z"/>
		<path style="fill:#06033E;" d="M272.794,229.298l-4.876-2.815c-0.392-0.226-0.342-0.621,0.11-0.882l4.832-2.789
			c0.452-0.261,1.136-0.289,1.527-0.063l4.876,2.815c0.392,0.226,0.342,0.621-0.11,0.882l-4.831,2.789
			C273.869,229.495,273.185,229.524,272.794,229.298z"/>
		<path style="fill:#06033E;" d="M265.151,224.885l-4.876-2.815c-0.392-0.226-0.342-0.621,0.11-0.882l4.832-2.79
			c0.452-0.261,1.136-0.289,1.527-0.063l4.876,2.815c0.392,0.226,0.342,0.621-0.11,0.882l-4.832,2.789
			C266.226,225.083,265.543,225.111,265.151,224.885z"/>
		<path style="fill:#06033E;" d="M257.496,220.465l-10.502-6.063c-0.391-0.226-0.342-0.621,0.11-0.882l4.831-2.789
			c0.452-0.261,1.136-0.289,1.527-0.063l10.502,6.063c0.391,0.226,0.342,0.621-0.11,0.882l-4.832,2.789
			C258.571,220.663,257.887,220.691,257.496,220.465z"/>
		<path style="fill:#06033E;" d="M262.847,215.09l-8.523-4.921c-0.391-0.226-0.342-0.621,0.11-0.882l4.831-2.79
			c0.452-0.261,1.136-0.289,1.527-0.063l8.523,4.921c0.392,0.226,0.342,0.621-0.11,0.882l-4.831,2.789
			C263.922,215.288,263.238,215.317,262.847,215.09z"/>
		<path style="fill:#06033E;" d="M280.324,233.645l-4.876-2.815c-0.392-0.226-0.342-0.621,0.11-0.882l4.831-2.79
			c0.452-0.261,1.136-0.289,1.528-0.063l4.876,2.815c0.392,0.226,0.342,0.621-0.11,0.882l-4.831,2.789
			C281.399,233.843,280.716,233.871,280.324,233.645z"/>
		<path style="fill:#06033E;" d="M287.854,237.993l-4.876-2.815c-0.391-0.226-0.342-0.621,0.11-0.882l4.831-2.79
			c0.452-0.261,1.136-0.289,1.527-0.063l4.876,2.815c0.392,0.226,0.342,0.621-0.11,0.882l-4.831,2.789
			C288.93,238.191,288.246,238.219,287.854,237.993z"/>
		<path style="fill:#06033E;" d="M295.384,242.34l-4.876-2.815c-0.392-0.226-0.342-0.621,0.11-0.882l4.831-2.789
			c0.452-0.261,1.136-0.289,1.527-0.063l4.876,2.815c0.392,0.226,0.342,0.621-0.11,0.882l-4.831,2.789
			C296.46,242.538,295.776,242.566,295.384,242.34z"/>
		<path style="fill:#06033E;" d="M302.915,246.688l-4.876-2.815c-0.392-0.226-0.342-0.621,0.11-0.882l4.832-2.789
			c0.452-0.261,1.136-0.289,1.527-0.063l4.876,2.815c0.392,0.226,0.342,0.621-0.11,0.882l-4.832,2.789
			C303.99,246.886,303.306,246.914,302.915,246.688z"/>
		<path style="fill:#06033E;" d="M310.445,251.036l-4.876-2.815c-0.392-0.226-0.342-0.621,0.11-0.882l4.832-2.789
			c0.452-0.261,1.136-0.289,1.527-0.063l4.876,2.815c0.392,0.226,0.342,0.621-0.11,0.882l-4.831,2.789
			C311.52,251.233,310.837,251.262,310.445,251.036z"/>
		<path style="fill:#06033E;" d="M317.975,255.383l-4.876-2.815c-0.391-0.226-0.342-0.621,0.11-0.882l4.832-2.789
			c0.452-0.261,1.136-0.289,1.527-0.063l4.876,2.815c0.391,0.226,0.342,0.621-0.11,0.882l-4.831,2.789
			C319.051,255.581,318.367,255.609,317.975,255.383z"/>
		<path style="fill:#06033E;" d="M325.506,259.731l-4.876-2.815c-0.391-0.226-0.342-0.621,0.11-0.882l4.831-2.789
			c0.452-0.261,1.136-0.289,1.527-0.063l4.876,2.815c0.391,0.226,0.342,0.621-0.11,0.882l-4.832,2.789
			C326.581,259.928,325.897,259.957,325.506,259.731z"/>
		<path style="fill:#06033E;" d="M333.036,264.078l-4.876-2.815c-0.392-0.226-0.342-0.621,0.11-0.882l4.831-2.789
			c0.452-0.261,1.136-0.289,1.527-0.063l4.876,2.815c0.392,0.226,0.342,0.621-0.11,0.882l-4.832,2.789
			C334.111,264.276,333.427,264.305,333.036,264.078z"/>
		<path style="fill:#06033E;" d="M340.566,268.426l-4.876-2.815c-0.392-0.226-0.342-0.621,0.11-0.882l4.832-2.789
			c0.452-0.261,1.136-0.289,1.527-0.063l4.876,2.815c0.392,0.226,0.342,0.621-0.11,0.882l-4.832,2.789
			C341.642,268.624,340.958,268.652,340.566,268.426z"/>
		<path style="fill:#06033E;" d="M353.953,276.155l-10.639-6.143c-0.392-0.226-0.342-0.621,0.11-0.882l4.831-2.79
			c0.452-0.261,1.136-0.289,1.527-0.063l10.639,6.143c0.391,0.226,0.342,0.621-0.11,0.882l-4.831,2.789
			C355.029,276.353,354.345,276.381,353.953,276.155z"/>
		<path style="fill:#06033E;" d="M368.614,267.691l-8.98-5.185c-0.392-0.226-0.342-0.621,0.11-0.882l4.831-2.789
			c0.452-0.261,1.136-0.289,1.527-0.063l8.98,5.185c0.392,0.226,0.342,0.621-0.11,0.882l-4.831,2.789
			C369.689,267.889,369.005,267.917,368.614,267.691z"/>
		<path style="fill:#06033E;" d="M293.511,232.795l-4.876-2.815c-0.391-0.226-0.342-0.621,0.11-0.882l4.832-2.789
			c0.452-0.261,1.136-0.289,1.527-0.063l4.876,2.815c0.391,0.226,0.342,0.621-0.11,0.882l-4.831,2.789
			C294.586,232.992,293.903,233.021,293.511,232.795z"/>
		<path style="fill:#06033E;" d="M285.793,228.339l-4.876-2.815c-0.392-0.226-0.342-0.621,0.11-0.882l4.831-2.789
			c0.452-0.261,1.136-0.289,1.527-0.063l4.876,2.815c0.392,0.226,0.342,0.621-0.11,0.882l-4.831,2.789
			C286.869,228.536,286.185,228.565,285.793,228.339z"/>
		<path style="fill:#06033E;" d="M278.076,223.883l-4.876-2.815c-0.392-0.226-0.342-0.621,0.11-0.882l4.832-2.789
			c0.452-0.261,1.136-0.289,1.527-0.063l4.876,2.815c0.392,0.226,0.342,0.621-0.11,0.882l-4.831,2.789
			C279.151,224.081,278.467,224.109,278.076,223.883z"/>
		<path style="fill:#06033E;" d="M270.358,219.427l-4.876-2.815c-0.392-0.226-0.342-0.621,0.11-0.882l4.832-2.789
			c0.452-0.261,1.136-0.289,1.527-0.063l4.876,2.815c0.392,0.226,0.342,0.621-0.11,0.882l-4.831,2.789
			C271.434,219.625,270.75,219.653,270.358,219.427z"/>
		<path style="fill:#06033E;" d="M301.041,237.142l-4.876-2.815c-0.391-0.226-0.342-0.621,0.11-0.882l4.831-2.79
			c0.452-0.261,1.136-0.289,1.527-0.063l4.876,2.815c0.391,0.226,0.342,0.621-0.11,0.882l-4.832,2.79
			C302.117,237.34,301.433,237.368,301.041,237.142z"/>
		<path style="fill:#06033E;" d="M308.572,241.49l-4.876-2.815c-0.392-0.226-0.342-0.621,0.11-0.882l4.831-2.789
			c0.452-0.261,1.136-0.289,1.527-0.063l4.876,2.815c0.392,0.226,0.342,0.621-0.11,0.882l-4.832,2.79
			C309.647,241.688,308.963,241.716,308.572,241.49z"/>
		<path style="fill:#06033E;" d="M316.102,245.837l-4.876-2.815c-0.392-0.226-0.342-0.621,0.11-0.882l4.832-2.79
			c0.452-0.261,1.136-0.289,1.527-0.063l4.876,2.815c0.392,0.226,0.342,0.621-0.11,0.882l-4.831,2.789
			C317.177,246.035,316.493,246.063,316.102,245.837z"/>
		<path style="fill:#06033E;" d="M323.632,250.185l-4.876-2.815c-0.392-0.226-0.342-0.621,0.11-0.882l4.831-2.79
			c0.452-0.261,1.136-0.289,1.527-0.063l4.876,2.815c0.392,0.226,0.342,0.621-0.11,0.882l-4.831,2.79
			C324.707,250.383,324.024,250.411,323.632,250.185z"/>
		<path style="fill:#06033E;" d="M331.162,254.533l-4.876-2.815c-0.391-0.226-0.342-0.621,0.11-0.882l4.831-2.789
			c0.452-0.261,1.136-0.289,1.528-0.063l4.876,2.815c0.391,0.226,0.342,0.621-0.11,0.882l-4.831,2.79
			C332.238,254.73,331.554,254.759,331.162,254.533z"/>
		<path style="fill:#06033E;" d="M338.693,258.88l-4.876-2.815c-0.392-0.226-0.342-0.621,0.11-0.882l4.831-2.79
			c0.452-0.261,1.136-0.289,1.527-0.063l4.876,2.815c0.392,0.226,0.342,0.621-0.11,0.882l-4.831,2.789
			C339.768,259.078,339.084,259.106,338.693,258.88z"/>
		<path style="fill:#06033E;" d="M346.223,263.228l-4.876-2.815c-0.392-0.226-0.342-0.621,0.11-0.882l4.831-2.789
			c0.452-0.261,1.136-0.289,1.527-0.063l4.876,2.815c0.392,0.226,0.342,0.621-0.11,0.882l-4.832,2.789
			C347.298,263.426,346.615,263.454,346.223,263.228z"/>
		<path style="fill:#06033E;" d="M353.753,267.575l-4.876-2.815c-0.392-0.226-0.342-0.621,0.11-0.882l4.832-2.789
			c0.452-0.261,1.136-0.289,1.527-0.063l4.876,2.815c0.392,0.226,0.342,0.621-0.11,0.882l-4.832,2.789
			C354.829,267.773,354.145,267.801,353.753,267.575z"/>
		<path style="fill:#06033E;" d="M361.284,271.923l-4.876-2.815c-0.391-0.226-0.342-0.621,0.11-0.882l4.832-2.789
			c0.452-0.261,1.136-0.289,1.527-0.063l4.876,2.815c0.391,0.226,0.342,0.621-0.11,0.882l-4.831,2.79
			C362.359,272.121,361.675,272.149,361.284,271.923z"/>
		<path style="fill:#06033E;" d="M289.546,222.041l-4.876-2.815c-0.392-0.226-0.342-0.621,0.11-0.882l4.832-2.789
			c0.452-0.261,1.136-0.289,1.527-0.063l4.876,2.815c0.392,0.226,0.342,0.621-0.11,0.882l-4.832,2.789
			C290.621,222.239,289.937,222.267,289.546,222.041z"/>
		<path style="fill:#06033E;" d="M282.053,217.715l-4.876-2.815c-0.392-0.226-0.342-0.621,0.11-0.882l4.832-2.79
			c0.452-0.261,1.136-0.289,1.527-0.063l4.876,2.815c0.392,0.226,0.342,0.621-0.11,0.882l-4.832,2.789
			C283.129,217.913,282.445,217.941,282.053,217.715z"/>
		<path style="fill:#06033E;" d="M274.56,213.389l-4.876-2.815c-0.392-0.226-0.342-0.621,0.11-0.882l4.832-2.79
			c0.452-0.261,1.136-0.289,1.527-0.063l4.876,2.815c0.392,0.226,0.342,0.621-0.11,0.882l-4.832,2.79
			C275.636,213.587,274.952,213.615,274.56,213.389z"/>
		<path style="fill:#06033E;" d="M267.068,209.063l-4.876-2.815c-0.392-0.226-0.342-0.621,0.11-0.882l4.832-2.789
			c0.452-0.261,1.136-0.289,1.527-0.063l4.876,2.815c0.392,0.226,0.342,0.621-0.11,0.882L268.595,209
			C268.143,209.261,267.459,209.289,267.068,209.063z"/>
		<path style="fill:#06033E;" d="M274.772,204.615l-4.876-2.815c-0.392-0.226-0.342-0.621,0.11-0.882l1.597-0.922
			c0.452-0.261,1.136-0.289,1.527-0.063l4.876,2.815c0.391,0.226,0.342,0.621-0.11,0.882l-1.597,0.922
			C275.848,204.812,275.164,204.841,274.772,204.615z"/>
		<path style="fill:#06033E;" d="M284.551,210.26l-4.876-2.815c-0.391-0.226-0.342-0.621,0.11-0.882l1.597-0.922
			c0.452-0.261,1.136-0.289,1.527-0.063l4.876,2.815c0.392,0.226,0.342,0.621-0.11,0.882l-1.597,0.922
			C285.626,210.458,284.942,210.486,284.551,210.26z"/>
		<path style="fill:#06033E;" d="M292.012,214.568l-4.876-2.815c-0.392-0.226-0.342-0.621,0.11-0.882l1.597-0.922
			c0.452-0.261,1.136-0.289,1.527-0.063l4.876,2.815c0.392,0.226,0.342,0.621-0.11,0.882l-1.597,0.922
			C293.087,214.766,292.404,214.794,292.012,214.568z"/>
		<path style="fill:#06033E;" d="M299.474,218.876l-4.876-2.815c-0.392-0.226-0.342-0.621,0.11-0.882l1.597-0.922
			c0.452-0.261,1.136-0.289,1.527-0.063l4.876,2.815c0.391,0.226,0.342,0.621-0.11,0.882l-1.597,0.922
			C300.549,219.074,299.865,219.102,299.474,218.876z"/>
		<path style="fill:#06033E;" d="M306.935,223.184l-4.876-2.815c-0.392-0.226-0.342-0.621,0.11-0.882l1.597-0.922
			c0.452-0.261,1.136-0.289,1.527-0.063l4.876,2.815c0.392,0.226,0.342,0.621-0.11,0.882l-1.597,0.922
			C308.011,223.382,307.327,223.41,306.935,223.184z"/>
		<path style="fill:#06033E;" d="M348.592,247.235l-4.876-2.815c-0.392-0.226-0.342-0.621,0.11-0.882l1.597-0.922
			c0.452-0.261,1.136-0.289,1.527-0.063l4.876,2.815c0.392,0.226,0.342,0.621-0.11,0.882l-1.597,0.922
			C349.668,247.432,348.984,247.461,348.592,247.235z"/>
		<path style="fill:#06033E;" d="M356.054,251.542l-4.876-2.815c-0.392-0.226-0.342-0.621,0.11-0.882l1.597-0.922
			c0.452-0.261,1.136-0.289,1.527-0.063l4.876,2.815c0.392,0.226,0.342,0.621-0.11,0.882l-1.597,0.922
			C357.129,251.74,356.445,251.769,356.054,251.542z"/>
		<path style="fill:#06033E;" d="M363.515,255.85l-4.876-2.815c-0.392-0.226-0.342-0.621,0.11-0.882l1.597-0.922
			c0.452-0.261,1.136-0.289,1.527-0.063l4.876,2.815c0.392,0.226,0.342,0.621-0.11,0.882l-1.597,0.922
			C364.591,256.048,363.907,256.077,363.515,255.85z"/>
		<path style="fill:#06033E;" d="M370.977,260.158l-4.876-2.815c-0.392-0.226-0.342-0.621,0.11-0.882l1.597-0.922
			c0.452-0.261,1.136-0.289,1.527-0.063l4.876,2.815c0.391,0.226,0.342,0.621-0.11,0.882l-1.597,0.922
			C372.052,260.356,371.368,260.384,370.977,260.158z"/>
		<path style="fill:#06033E;" d="M297.076,226.389l-4.876-2.815c-0.392-0.226-0.342-0.621,0.11-0.882l4.832-2.789
			c0.452-0.261,1.136-0.289,1.527-0.063l4.876,2.815c0.392,0.226,0.342,0.621-0.11,0.882l-4.831,2.789
			C298.152,226.586,297.468,226.615,297.076,226.389z"/>
		<path style="fill:#06033E;" d="M304.607,230.736l-4.876-2.815c-0.391-0.226-0.342-0.621,0.11-0.882l4.831-2.789
			c0.452-0.261,1.136-0.289,1.528-0.063l4.876,2.815c0.392,0.226,0.342,0.621-0.11,0.882l-4.831,2.789
			C305.682,230.934,304.998,230.962,304.607,230.736z"/>
		<path style="fill:#06033E;" d="M312.137,235.084l-4.876-2.815c-0.391-0.226-0.342-0.621,0.11-0.882l4.831-2.789
			c0.452-0.261,1.136-0.289,1.527-0.063l4.876,2.815c0.392,0.226,0.343,0.621-0.11,0.882l-4.831,2.79
			C313.212,235.282,312.528,235.31,312.137,235.084z"/>
		<path style="fill:#06033E;" d="M319.667,239.432l-4.876-2.815c-0.392-0.226-0.342-0.621,0.11-0.882l4.831-2.789
			c0.452-0.261,1.136-0.289,1.527-0.063l4.876,2.815c0.392,0.226,0.342,0.621-0.11,0.882l-4.831,2.789
			C320.742,239.629,320.059,239.658,319.667,239.432z"/>
		<path style="fill:#06033E;" d="M327.197,243.779l-4.876-2.815c-0.392-0.226-0.342-0.621,0.11-0.882l4.832-2.789
			c0.452-0.261,1.136-0.289,1.527-0.063l4.876,2.815c0.392,0.226,0.342,0.621-0.11,0.882l-4.832,2.79
			C328.273,243.977,327.589,244.005,327.197,243.779z"/>
		<path style="fill:#06033E;" d="M334.728,248.127l-4.876-2.815c-0.392-0.226-0.342-0.621,0.11-0.882l4.832-2.789
			c0.452-0.261,1.136-0.289,1.527-0.063l4.876,2.815c0.392,0.226,0.342,0.621-0.11,0.882l-4.831,2.79
			C335.803,248.324,335.119,248.353,334.728,248.127z"/>
		<path style="fill:#06033E;" d="M342.258,252.474l-4.876-2.815c-0.392-0.226-0.342-0.621,0.11-0.882l4.832-2.789
			c0.452-0.261,1.136-0.289,1.527-0.063l4.876,2.815c0.391,0.226,0.342,0.621-0.11,0.882l-4.831,2.789
			C343.333,252.672,342.649,252.7,342.258,252.474z"/>
		<path style="fill:#06033E;" d="M349.788,256.822l-4.876-2.815c-0.392-0.226-0.342-0.621,0.11-0.882l4.831-2.789
			c0.452-0.261,1.136-0.289,1.527-0.063l4.876,2.815c0.391,0.226,0.342,0.621-0.11,0.882l-4.832,2.79
			C350.863,257.02,350.18,257.048,349.788,256.822z"/>
		<path style="fill:#06033E;" d="M357.318,261.169l-4.876-2.815c-0.392-0.226-0.342-0.621,0.11-0.882l4.831-2.789
			c0.452-0.261,1.136-0.289,1.527-0.063l4.876,2.815c0.392,0.226,0.342,0.621-0.11,0.882l-4.832,2.789
			C358.394,261.367,357.71,261.396,357.318,261.169z"/>
		<path style="fill:#06033E;" d="M254.024,226.925l-14.361-8.291c-0.392-0.226-0.342-0.621,0.11-0.882l4.831-2.789
			c0.452-0.261,1.136-0.289,1.527-0.063l14.361,8.291c0.392,0.226,0.342,0.621-0.11,0.882l-4.831,2.789
			C255.1,227.123,254.416,227.152,254.024,226.925z"/>
		<path style="fill:#06033E;" d="M346.536,280.337l-14.361-8.291c-0.392-0.226-0.342-0.621,0.11-0.882l4.831-2.789
			c0.452-0.261,1.136-0.289,1.527-0.063l14.361,8.291c0.391,0.226,0.342,0.621-0.11,0.882l-4.831,2.789
			C347.611,280.534,346.927,280.563,346.536,280.337z"/>
		<path style="fill:#06033E;" d="M316.421,272.553l-4.876-2.815c-0.392-0.226-0.342-0.621,0.11-0.882l5.756-3.323
			c0.452-0.261,1.136-0.289,1.527-0.063l4.876,2.815c0.392,0.226,0.342,0.621-0.11,0.882l-5.756,3.323
			C317.496,272.751,316.813,272.78,316.421,272.553z"/>
		<path style="fill:#06033E;" d="M261.736,240.981l-7.798-4.502c-0.391-0.226-0.342-0.621,0.11-0.882l5.756-3.323
			c0.452-0.261,1.136-0.289,1.528-0.063l7.798,4.502c0.392,0.226,0.342,0.621-0.11,0.882l-5.756,3.323
			C262.811,241.179,262.128,241.207,261.736,240.981z"/>
		<path style="fill:#06033E;" d="M309.165,268.365l-7.798-4.502c-0.392-0.226-0.342-0.621,0.11-0.882l5.756-3.323
			c0.452-0.261,1.136-0.289,1.527-0.063l7.798,4.502c0.392,0.226,0.342,0.621-0.11,0.882l-5.756,3.323
			C310.241,268.562,309.557,268.591,309.165,268.365z"/>
		<path style="fill:#06033E;" d="M272.601,247.254l-7.798-4.502c-0.391-0.226-0.342-0.621,0.11-0.882l5.756-3.323
			c0.452-0.261,1.136-0.289,1.527-0.063l7.798,4.502c0.392,0.226,0.342,0.621-0.11,0.882l-5.755,3.323
			C273.676,247.451,272.992,247.48,272.601,247.254z"/>
		<path style="fill:#06033E;" d="M272.248,238.514l33.905,19.575c0.421,0.243,0.421,0.637,0,0.88l-5.869,3.388
			c-0.421,0.243-1.103,0.243-1.523,0l-33.905-19.575L272.248,238.514z"/>
		<path style="fill:#06033E;" d="M337.467,280.436l5.432,3.136c0.321,0.185,0.281,0.509-0.09,0.723l-2.354,1.359
			c-0.371,0.214-0.931,0.237-1.252,0.052l-5.431-3.136c-0.321-0.185-0.281-0.509,0.09-0.723l2.354-1.359
			C336.585,280.274,337.146,280.251,337.467,280.436z"/>
		<path style="fill:#06033E;" d="M329.874,276.052l5.431,3.136c0.321,0.185,0.281,0.509-0.09,0.723l-2.354,1.359
			c-0.371,0.214-0.931,0.237-1.252,0.052l-5.432-3.136c-0.321-0.185-0.281-0.509,0.09-0.723l2.354-1.359
			C328.993,275.891,329.553,275.867,329.874,276.052z"/>
		<path style="fill:#06033E;" d="M322.344,271.705l5.432,3.136c0.321,0.185,0.281,0.509-0.09,0.723l-2.355,1.359
			c-0.37,0.214-0.931,0.237-1.252,0.052l-5.431-3.136c-0.321-0.185-0.281-0.509,0.09-0.723l2.354-1.359
			C321.462,271.543,322.023,271.52,322.344,271.705z"/>
		<path style="fill:#06033E;" d="M334.033,273.652l5.432,3.136c0.321,0.185,0.281,0.509-0.09,0.723l-2.354,1.359
			c-0.371,0.214-0.931,0.237-1.252,0.052l-5.432-3.136c-0.321-0.185-0.281-0.509,0.09-0.723l2.355-1.359
			C333.151,273.49,333.712,273.466,334.033,273.652z"/>
	</g>
	
		<radialGradient id="SVGID_00000072975694842477203080000008265170541150777478_" cx="245.5197" cy="107.1847" r="223.3409" gradientUnits="userSpaceOnUse">
		<stop  offset="0" style="stop-color:#E39A65"/>
		<stop  offset="0.4742" style="stop-color:#A92FFB"/>
		<stop  offset="0.5875" style="stop-color:#891CFB"/>
		<stop  offset="0.7262" style="stop-color:#6507FA"/>
		<stop  offset="1" style="stop-color:#3919BB"/>
	</radialGradient>
	<path style="fill:url(#SVGID_00000072975694842477203080000008265170541150777478_);" d="M413.728,264.856l-143.862-83.059
		c-2.262-1.306-3.443-4.489-2.637-7.108l32.534-105.631c0.806-2.619,3.293-3.684,5.555-2.378l143.862,83.059
		c2.262,1.306,3.443,4.488,2.637,7.108l-32.534,105.631C418.477,265.098,415.99,266.162,413.728,264.856z"/>
	
		<linearGradient id="SVGID_00000075151849042564816900000014777708313708540336_" gradientUnits="userSpaceOnUse" x1="270.0674" y1="165.8121" x2="449.0337" y2="165.8121">
		<stop  offset="0" style="stop-color:#3919BB"/>
		<stop  offset="1" style="stop-color:#6507FA"/>
	</linearGradient>
	<path style="fill:url(#SVGID_00000075151849042564816900000014777708313708540336_);" d="M412.371,261.157l-139.538-80.629
		c-2.165-1.25-3.295-4.295-2.524-6.802l31.104-100.983c0.771-2.507,3.151-3.526,5.316-2.276l139.538,80.629
		c2.165,1.25,3.295,4.295,2.524,6.802l-31.104,100.983C416.917,261.388,414.536,262.407,412.371,261.157z"/>
	<path style="opacity:0.4;fill:#06033E;" d="M412.371,261.157l-139.538-80.629c-2.165-1.25-3.295-4.295-2.524-6.802l31.104-100.983
		c0.771-2.507,3.151-3.526,5.316-2.276l139.538,80.629c2.165,1.25,3.295,4.295,2.524,6.802l-31.104,100.983
		C416.917,261.388,414.536,262.407,412.371,261.157z"/>
	<path style="opacity:0.4;fill:#06033E;" d="M412.371,261.157l-139.538-80.629c-2.165-1.25-3.295-4.295-2.524-6.802l31.104-100.983
		c0.771-2.507,3.151-3.526,5.316-2.276l139.538,80.629c2.165,1.25,3.295,4.295,2.524,6.802l-31.104,100.983
		C416.917,261.388,414.536,262.407,412.371,261.157z"/>
	<path style="opacity:0.5;fill:#06033E;" d="M404.875,226.573l-94.46-54.536c-1.485-0.858-2.261-2.947-1.731-4.667l21.362-69.358
		c0.529-1.72,2.162-2.419,3.647-1.562l94.46,54.536c1.485,0.858,2.261,2.947,1.732,4.667l-21.362,69.358
		C407.993,226.732,406.36,227.431,404.875,226.573z"/>
	<g>
		
			<radialGradient id="SVGID_00000026131847526780605860000007376378212808066737_" cx="163.9881" cy="59.4914" r="347.8475" gradientUnits="userSpaceOnUse">
			<stop  offset="0" style="stop-color:#E39A65"/>
			<stop  offset="0.4742" style="stop-color:#A92FFB"/>
			<stop  offset="0.5875" style="stop-color:#891CFB"/>
			<stop  offset="0.7262" style="stop-color:#6507FA"/>
			<stop  offset="1" style="stop-color:#3919BB"/>
		</radialGradient>
		<path style="fill:url(#SVGID_00000026131847526780605860000007376378212808066737_);" d="M392.112,231.971l-94.46-54.536
			c-1.485-0.858-2.261-2.947-1.732-4.667l21.362-69.358c0.529-1.72,2.162-2.419,3.648-1.562l94.46,54.537
			c1.485,0.858,2.261,2.947,1.732,4.667L395.76,230.41C395.231,232.13,393.598,232.829,392.112,231.971z"/>
	</g>
	<g style="opacity:0.5;">
		<path style="fill:#06033E;" d="M392.112,231.971l-94.46-54.536c-1.485-0.858-2.261-2.947-1.732-4.667l21.362-69.358
			c0.529-1.72,2.162-2.419,3.648-1.562l94.46,54.537c1.485,0.858,2.261,2.947,1.732,4.667L395.76,230.41
			C395.231,232.13,393.598,232.829,392.112,231.971z"/>
	</g>
	<path style="fill:#FFFFFF;" d="M415.39,156.385l-94.46-54.537c-0.931-0.537-1.919-0.463-2.658,0.09
		c0.445-0.013,0.91,0.088,1.364,0.349l94.46,54.536c1.485,0.857,2.26,2.947,1.731,4.667l-21.362,69.358
		c-0.198,0.642-0.549,1.141-0.99,1.471c1.013-0.03,1.916-0.716,2.284-1.911l21.361-69.358
		C417.651,159.332,416.875,157.242,415.39,156.385z"/>
	<path style="opacity:0.4;fill:#06033E;" d="M272.975,288.609c-1.301,0-2.548-0.271-3.5-0.819l-37.845-21.85
		c-1.003-0.58-1.555-1.407-1.555-2.332c-0.001-1.072,0.761-2.127,2.087-2.893l19.48-11.248c2.38-1.373,5.874-1.508,7.957-0.307
		l37.845,21.85c1.003,0.58,1.555,1.407,1.555,2.332c0.001,1.072-0.761,2.127-2.087,2.892l-19.48,11.248
		C276.14,288.228,274.519,288.609,272.975,288.609z M256.118,249.447c-1.368,0-2.821,0.329-3.928,0.968l-19.48,11.247
		c-0.98,0.565-1.542,1.275-1.542,1.946c0,0.663,0.549,1.119,1.01,1.385l37.845,21.85c1.715,0.991,4.858,0.851,6.863-0.307
		l19.48-11.247c0.979-0.565,1.542-1.275,1.542-1.946c0-0.663-0.549-1.119-1.01-1.385l-37.845-21.85
		C258.285,249.663,257.229,249.447,256.118,249.447z"/>
</g>
<g>
	<path style="fill:#FFFFFF;" d="M386.466,150.649l-4.269-2.465c-0.396-0.229-0.608-0.778-0.474-1.227l0,0
		c0.134-0.449,0.564-0.628,0.96-0.399l4.269,2.464c0.396,0.229,0.608,0.778,0.474,1.228l0,0
		C387.291,150.698,386.862,150.877,386.466,150.649z"/>
	<path style="fill:#FFFFFF;" d="M334.904,120.989l-11.748-6.763c-0.396-0.229-0.608-0.778-0.474-1.227l0,0
		c0.134-0.449,0.564-0.628,0.96-0.399l11.748,6.763c0.396,0.229,0.608,0.778,0.474,1.227l0,0
		C335.729,121.039,335.3,121.218,334.904,120.989z"/>
	<path style="fill:#FFFFFF;" d="M394.608,155.35l-4.268-2.465c-0.396-0.229-0.608-0.778-0.474-1.227l0,0
		c0.134-0.449,0.564-0.628,0.96-0.399l4.268,2.464c0.396,0.229,0.608,0.778,0.475,1.227l0,0
		C395.433,155.399,395.004,155.578,394.608,155.35z"/>
	<path style="fill:#FFFFFF;" d="M402.75,160.05l-4.268-2.464c-0.396-0.229-0.608-0.778-0.474-1.227l0,0
		c0.134-0.449,0.564-0.628,0.96-0.399l4.268,2.464c0.396,0.229,0.608,0.778,0.474,1.227l0,0
		C403.576,160.1,403.146,160.279,402.75,160.05z"/>
	<path style="fill:#F8359E;" d="M406.752,162.364l-0.128-0.077c-0.396-0.229-0.608-0.778-0.475-1.227l0,0
		c0.134-0.449,0.564-0.628,0.96-0.399l0.128,0.077c0.396,0.229,0.608,0.778,0.474,1.227l0,0
		C407.578,162.414,407.148,162.593,406.752,162.364z"/>
</g>
<linearGradient id="SVGID_00000078033726641093094440000002906983020086334619_" gradientUnits="userSpaceOnUse" x1="388.8943" y1="355.6299" x2="465.6697" y2="355.6299">
	<stop  offset="0" style="stop-color:#E39A65"/>
	<stop  offset="1" style="stop-color:#E95F8D"/>
</linearGradient>
<path style="fill:url(#SVGID_00000078033726641093094440000002906983020086334619_);" d="M427.282,377.655
	c-2.701,0-5.403-0.695-7.813-2.087l0,0l-28.596-16.51c-1.239-0.715-1.98-1.997-1.98-3.429c0-1.431,0.74-2.713,1.98-3.428
	l28.595-16.509c4.819-2.783,10.807-2.783,15.626,0l28.595,16.509c1.24,0.716,1.98,1.997,1.98,3.429c0,1.432-0.74,2.713-1.98,3.429
	l-28.594,16.509C432.686,376.959,429.984,377.655,427.282,377.655z M420.399,373.956c4.247,2.451,9.521,2.45,13.767,0l28.594-16.509
	c0.656-0.38,1.049-1.059,1.049-1.817c0-0.759-0.392-1.438-1.049-1.817l-28.596-16.509c-4.246-2.451-9.52-2.451-13.765,0
	l-28.596,16.509c-0.656,0.379-1.048,1.059-1.048,1.816c0,0.759,0.392,1.439,1.048,1.817L420.399,373.956z"/>
<g>
	<ellipse style="opacity:0.6;fill:#020230;" cx="427.282" cy="356.297" rx="19.641" ry="11.34"/>
	
		<radialGradient id="SVGID_00000171707946828493183600000007537037244786861450_" cx="395.8451" cy="293.2822" r="165.3491" gradientUnits="userSpaceOnUse">
		<stop  offset="0" style="stop-color:#E39A65"/>
		<stop  offset="0.1528" style="stop-color:#A92FFB"/>
		<stop  offset="0.4087" style="stop-color:#3919BB"/>
		<stop  offset="0.9311" style="stop-color:#3919BB"/>
	</radialGradient>
	<path style="fill:url(#SVGID_00000171707946828493183600000007537037244786861450_);" d="M456.396,275.478h-55.942l5.203,60.569
		l0,0c0,3.364,2.223,6.728,6.669,9.295c8.891,5.134,23.307,5.134,32.199,0c4.446-2.567,6.668-5.931,6.668-9.295L456.396,275.478z"/>
	<path style="opacity:0.4;fill:#06033E;" d="M456.396,275.478h-55.942l0.856,9.965c1.282,1.644,3.007,3.219,5.185,4.664
		c10.69,7.091,28.328,8.458,40.364,3.351l-1.861,44.3c-0.081,1.931-0.748,3.809-1.999,5.282c-1.812,2.133-5.303,4.642-12.014,6.061
		c4.947-0.321,9.748-1.568,13.541-3.758c4.446-2.567,6.668-5.931,6.668-9.295l4.173-48.575l0,0L456.396,275.478z"/>
	<ellipse style="opacity:0.4;fill:#06033E;" cx="428.425" cy="275.478" rx="27.971" ry="16.149"/>
	<ellipse style="opacity:0.4;fill:#06033E;" cx="428.425" cy="269.785" rx="24.092" ry="13.91"/>
	
		<linearGradient id="SVGID_00000171718902549373869900000009632790970664072875_" gradientUnits="userSpaceOnUse" x1="398.7715" y1="272.7989" x2="458.0809" y2="272.7989">
		<stop  offset="0" style="stop-color:#E39A65"/>
		<stop  offset="0.252" style="stop-color:#A92FFB"/>
		<stop  offset="0.5556" style="stop-color:#3919BB"/>
	</linearGradient>
	<path style="fill:url(#SVGID_00000171718902549373869900000009632790970664072875_);" d="M458.052,274.717l0.003,0.004
		l-0.005-0.049c-0.002-0.028-0.006-0.055-0.008-0.083l-0.537-5.423l-0.023,0.061c-0.24-4.105-3.067-8.168-8.494-11.302
		c-11.357-6.557-29.77-6.557-41.126,0c-5.564,3.212-8.395,7.403-8.506,11.613l-0.007-0.014l-0.512,4.829
		c-0.014,0.126-0.031,0.251-0.04,0.377l-0.008,0.079l0.005-0.004c-0.307,4.6,2.576,9.259,8.66,12.771
		c11.582,6.687,30.361,6.687,41.944,0C455.519,284.041,458.402,279.346,458.052,274.717z"/>
	
		<linearGradient id="SVGID_00000024723680943575876010000017412651455633120415_" gradientUnits="userSpaceOnUse" x1="404.3327" y1="269.7852" x2="452.517" y2="269.7852">
		<stop  offset="0" style="stop-color:#4F1FEC"/>
		<stop  offset="1" style="stop-color:#A92FFB"/>
	</linearGradient>
	
		<ellipse style="fill:url(#SVGID_00000024723680943575876010000017412651455633120415_);" cx="428.425" cy="269.785" rx="24.092" ry="13.91"/>
	
		<linearGradient id="SVGID_00000058591195527109510880000004902678120693904563_" gradientUnits="userSpaceOnUse" x1="403.1895" y1="269.7852" x2="451.3739" y2="269.7852">
		<stop  offset="0" style="stop-color:#4F1FEC"/>
		<stop  offset="1" style="stop-color:#A92FFB"/>
	</linearGradient>
	
		<ellipse style="fill:url(#SVGID_00000058591195527109510880000004902678120693904563_);" cx="427.282" cy="269.785" rx="24.092" ry="13.91"/>
	<path style="opacity:0.4;fill:#06033E;" d="M414.247,262.022c9.408-5.432,24.663-5.432,34.071,0c0.12,0.069,0.22,0.145,0.337,0.215
		c-0.908-0.809-1.967-1.578-3.195-2.287c-9.409-5.432-24.663-5.432-34.071,0c-9.289,5.363-9.389,14.009-0.337,19.456
		C405.008,274.016,406.067,266.744,414.247,262.022z"/>
	
		<linearGradient id="SVGID_00000004539829226184163980000011762177920903822216_" gradientUnits="userSpaceOnUse" x1="404.3367" y1="263.4341" x2="465.0889" y2="263.4341">
		<stop  offset="0" style="stop-color:#131060"/>
		<stop  offset="0.1857" style="stop-color:#141062"/>
		<stop  offset="0.2823" style="stop-color:#19106A"/>
		<stop  offset="0.3584" style="stop-color:#221078"/>
		<stop  offset="0.4238" style="stop-color:#2E0F8B"/>
		<stop  offset="0.4823" style="stop-color:#3E0FA3"/>
		<stop  offset="0.5359" style="stop-color:#510EC2"/>
		<stop  offset="0.5847" style="stop-color:#680DE5"/>
		<stop  offset="0.6071" style="stop-color:#740DF8"/>
		<stop  offset="0.6179" style="stop-color:#7A14F0"/>
		<stop  offset="0.6826" style="stop-color:#9B3CC3"/>
		<stop  offset="0.7477" style="stop-color:#B75D9D"/>
		<stop  offset="0.8123" style="stop-color:#CC7680"/>
		<stop  offset="0.8762" style="stop-color:#DC886C"/>
		<stop  offset="0.9391" style="stop-color:#E5935F"/>
		<stop  offset="1" style="stop-color:#E8975B"/>
	</linearGradient>
	<path style="fill:url(#SVGID_00000004539829226184163980000011762177920903822216_);" d="M411.389,262.364
		c9.409-5.432,24.663-5.432,34.072,0c4.172,2.409,6.49,5.481,6.962,8.629c0.592-3.951-1.725-8.019-6.962-11.043
		c-9.409-5.432-24.663-5.432-34.072,0c-5.236,3.023-7.554,7.092-6.962,11.042C404.899,267.845,407.217,264.772,411.389,262.364z"/>
	
		<radialGradient id="SVGID_00000017476227111017755690000002519662555571920797_" cx="391.3688" cy="256.0187" r="108.1645" gradientUnits="userSpaceOnUse">
		<stop  offset="0" style="stop-color:#E39A65"/>
		<stop  offset="0.252" style="stop-color:#A92FFB"/>
		<stop  offset="0.7357" style="stop-color:#3919BB"/>
	</radialGradient>
	<path style="fill:url(#SVGID_00000017476227111017755690000002519662555571920797_);" d="M449.168,258.051
		c-11.341-6.681-29.821-6.844-41.277-0.363c-11.456,6.48-11.549,17.15-0.209,23.831c11.34,6.681,29.82,6.844,41.277,0.364
		C460.414,275.402,460.508,264.733,449.168,258.051z M445.461,279.621c-3.143,1.815-6.943,3.008-10.955,3.611l-0.437-1.437
		c-0.177-0.58-0.712-0.977-1.318-0.977h-8.651c-0.606,0-1.142,0.396-1.318,0.977l-0.437,1.437
		c-4.012-0.602-7.811-1.796-10.954-3.611c-9.409-5.432-9.409-14.239-0.001-19.671c9.408-5.432,24.663-5.432,34.071,0
		C454.869,265.382,454.869,274.189,445.461,279.621z"/>
	<g>
		<path style="fill:#FFFFFF;" d="M445.46,258.92c-9.409-5.432-24.663-5.432-34.071,0c-4.931,2.847-7.273,6.621-7.035,10.35
			c0.216-3.386,2.558-6.735,7.035-9.32c9.408-5.432,24.663-5.432,34.071,0c4.478,2.585,6.819,5.935,7.035,9.321
			C452.734,265.541,450.392,261.767,445.46,258.92z"/>
		<path style="fill:#FFFFFF;" d="M448.958,280.853c-11.456,6.48-29.936,6.318-41.277-0.364c-5.397-3.179-8.198-7.262-8.424-11.367
			c-0.223,4.445,2.576,8.951,8.424,12.397c11.341,6.681,29.821,6.844,41.277,0.364c6.004-3.397,8.882-7.944,8.633-12.465
			C457.381,273.593,454.507,277.714,448.958,280.853z"/>
	</g>
	<path style="fill:#0C0A78;" d="M431.01,283.98h-5.171c-0.361,0-0.654-0.292-0.654-0.653v-0.091c0-0.361,0.293-0.654,0.654-0.654
		h5.171c0.361,0,0.653,0.293,0.653,0.654v0.091C431.664,283.688,431.371,283.98,431.01,283.98z"/>
	
		<linearGradient id="SVGID_00000080918023551674002280000012116528468219927426_" gradientUnits="userSpaceOnUse" x1="424.6116" y1="283.0414" x2="433.0162" y2="283.0414">
		<stop  offset="0" style="stop-color:#131060"/>
		<stop  offset="0.1857" style="stop-color:#141062"/>
		<stop  offset="0.2823" style="stop-color:#19106A"/>
		<stop  offset="0.3584" style="stop-color:#221078"/>
		<stop  offset="0.4238" style="stop-color:#2E0F8B"/>
		<stop  offset="0.4823" style="stop-color:#3E0FA3"/>
		<stop  offset="0.5359" style="stop-color:#510EC2"/>
		<stop  offset="0.5847" style="stop-color:#680DE5"/>
		<stop  offset="0.6071" style="stop-color:#740DF8"/>
		<stop  offset="0.6179" style="stop-color:#7A14F0"/>
		<stop  offset="0.6826" style="stop-color:#9B3CC3"/>
		<stop  offset="0.7477" style="stop-color:#B75D9D"/>
		<stop  offset="0.8123" style="stop-color:#CC7680"/>
		<stop  offset="0.8762" style="stop-color:#DC886C"/>
		<stop  offset="0.9391" style="stop-color:#E5935F"/>
		<stop  offset="1" style="stop-color:#E8975B"/>
	</linearGradient>
	<path style="fill:url(#SVGID_00000080918023551674002280000012116528468219927426_);" d="M431.01,282.582h-5.171
		c-0.361,0-0.653,0.293-0.653,0.654v0.091c0,0.062,0.019,0.117,0.035,0.174c0.077-0.274,0.319-0.479,0.618-0.479h5.171
		c0.299,0,0.541,0.205,0.618,0.479c0.016-0.056,0.035-0.112,0.035-0.174v-0.091C431.664,282.875,431.371,282.582,431.01,282.582z"/>
	<g>
		<path style="fill:#E8975B;" d="M429.217,329.825c-0.634,2.385-3.082,3.805-5.468,3.171c-2.385-0.634-3.805-3.082-3.171-5.467
			c0.634-2.385,2.884-3.061,5.27-2.426C428.234,325.736,429.851,327.439,429.217,329.825z"/>
		<path style="fill:#E8975B;" d="M432.735,325.117c-0.9,0.879-2.051,0.766-2.815-0.016c-0.764-0.782-0.851-1.935,0.048-2.814
			c0.9-0.879,2.61-1.313,3.374-0.531C434.107,322.537,433.635,324.237,432.735,325.117z"/>
		<path style="fill:#E8975B;" d="M428.061,321.377c-0.22,1.238-1.223,1.816-2.299,1.624c-1.076-0.191-1.818-1.079-1.597-2.318
			c0.22-1.239,1.36-2.586,2.436-2.394C427.677,318.481,428.281,320.139,428.061,321.377z"/>
		<path style="fill:#E8975B;" d="M422.3,320.805c0.479,1.163-0.058,2.188-1.068,2.604c-1.011,0.416-2.113,0.065-2.592-1.098
			c-0.479-1.164-0.24-2.912,0.771-3.328C420.421,318.568,421.821,319.642,422.3,320.805z"/>
	</g>
</g>
<path style="opacity:0.5;fill:#FFFFFF;" d="M414.504,277.115c0,0,15.64-5.241,9.307-23.212
	c-6.332-17.971-18.662-23.448-13.695-37.824c0,0-7.784,11.638-0.51,27.384c7.274,15.746,8.869,13.937,8.784,21.468
	c-0.102,8.947-7.329,12.185-7.329,12.185H414.504z"/>
<path style="opacity:0.5;fill:#FFFFFF;" d="M415.911,218.579c0,0-1.628-10.75,8.455-21.583c0,0-8.917,19.917-6,29.75
	C418.366,226.745,416.007,220.495,415.911,218.579z"/>
<g>
	<path style="opacity:0.6;fill:#020230;" d="M118.612,192.302l61.045-35.24c1.618-0.934,4.241-0.934,5.858,0l34.941,20.173
		c1.618,0.934,1.618,2.448,0,3.382l-61.045,35.24c-1.618,0.934-4.241,0.934-5.858,0l-34.941-20.173
		C116.994,194.751,116.994,193.236,118.612,192.302z"/>
	
		<linearGradient id="SVGID_00000120557884391246650330000005145198083811042442_" gradientUnits="userSpaceOnUse" x1="100.3982" y1="186.6645" x2="239.282" y2="186.6645">
		<stop  offset="0" style="stop-color:#E39A65"/>
		<stop  offset="1" style="stop-color:#E95F8D"/>
	</linearGradient>
	<path style="fill:url(#SVGID_00000120557884391246650330000005145198083811042442_);" d="M156.755,227.169
		c-1.486,0.001-2.973-0.334-4.132-1.003l-50.241-29.048c-1.279-0.738-1.983-1.776-1.983-2.923c0-1.145,0.704-2.184,1.984-2.922
		l76.411-44.11c2.316-1.338,5.946-1.338,8.263,0l50.242,29.048c1.278,0.738,1.983,1.776,1.983,2.922
		c0,1.146-0.705,2.185-1.983,2.923l-76.412,44.11C159.728,226.835,158.241,227.169,156.755,227.169z M182.925,148.024
		c-1.167,0-2.333,0.25-3.2,0.751l-76.412,44.11l0,0c-0.669,0.387-1.054,0.864-1.054,1.311c0,0.447,0.385,0.925,1.054,1.312
		l50.242,29.048c1.734,1.002,4.666,1.002,6.402,0l76.411-44.11c0.669-0.387,1.053-0.864,1.053-1.312
		c0-0.446-0.384-0.924-1.054-1.311l-50.241-29.048C185.258,148.274,184.092,148.024,182.925,148.024z M102.847,192.079h0.01H102.847
		z"/>
	
		<radialGradient id="SVGID_00000078015243569736611190000008554915492870948245_" cx="115.6488" cy="182.8469" r="65.9697" gradientUnits="userSpaceOnUse">
		<stop  offset="0" style="stop-color:#E39A65"/>
		<stop  offset="0.4742" style="stop-color:#A92FFB"/>
		<stop  offset="0.5679" style="stop-color:#891CFB"/>
		<stop  offset="0.6825" style="stop-color:#6507FA"/>
		<stop  offset="0.7381" style="stop-color:#0D0C6F"/>
	</radialGradient>
	<path style="fill:url(#SVGID_00000078015243569736611190000008554915492870948245_);" d="M221.67,170.543l0-1.113l-0.268,0.269
		c-0.201-0.31-0.514-0.601-0.945-0.85l-34.941-20.173c-1.618-0.934-4.241-0.934-5.858,0l-61.045,35.24
		c-0.389,0.224-0.681,0.482-0.883,0.758l-0.328-0.149v1.063c-0.009,0.618,0.394,1.238,1.211,1.71l34.941,20.173
		c1.618,0.934,4.241,0.934,5.859,0l61.045-35.24c0.801-0.463,1.205-1.068,1.212-1.674l0.001,0v-0.012l0-0.001L221.67,170.543z"/>
	
		<radialGradient id="SVGID_00000016068627108545181280000011567902726459805858_" cx="3498.2041" cy="-1251.5829" r="117.6123" gradientTransform="matrix(-0.866 0.5 1 0.5774 4413.606 -859.9031)" gradientUnits="userSpaceOnUse">
		<stop  offset="0" style="stop-color:#E39A65"/>
		<stop  offset="0.401" style="stop-color:#A92FFB"/>
		<stop  offset="0.5473" style="stop-color:#891CFB"/>
		<stop  offset="0.7262" style="stop-color:#6507FA"/>
		<stop  offset="1" style="stop-color:#3919BB"/>
	</radialGradient>
	<path style="fill:url(#SVGID_00000016068627108545181280000011567902726459805858_);" d="M118.612,182.788l61.045-35.24
		c1.618-0.934,4.241-0.934,5.858,0l34.941,20.173c1.618,0.934,1.618,2.448,0,3.382l-61.045,35.24c-1.618,0.934-4.241,0.934-5.858,0
		l-34.941-20.173C116.994,185.236,116.994,183.722,118.612,182.788z"/>
	<path style="fill:#FFE7D7;" d="M220.457,170.222l-61.045,35.24c-1.618,0.934-4.241,0.934-5.859,0l-34.941-20.173
		c-0.614-0.354-0.994-0.792-1.142-1.251c-0.242,0.749,0.138,1.552,1.142,2.132l34.941,20.173c1.618,0.934,4.241,0.934,5.859,0
		l61.045-35.24c1.004-0.579,1.383-1.383,1.142-2.132C221.45,169.43,221.07,169.868,220.457,170.222z"/>
	
		<radialGradient id="SVGID_00000126322745390256480300000011404206962421159304_" cx="2402.0217" cy="-1828.866" r="60.0388" gradientTransform="matrix(-0.866 0.5 0.9935 0.5736 4041.8979 32.696)" gradientUnits="userSpaceOnUse">
		<stop  offset="0" style="stop-color:#E39A65"/>
		<stop  offset="0.1355" style="stop-color:#D47E8C"/>
		<stop  offset="0.401" style="stop-color:#A92FFB"/>
		<stop  offset="0.5592" style="stop-color:#861AFA"/>
		<stop  offset="0.7262" style="stop-color:#6507FA"/>
		<stop  offset="1" style="stop-color:#3919BB"/>
	</radialGradient>
	<path style="fill:url(#SVGID_00000126322745390256480300000011404206962421159304_);" d="M151.484,188.287l6.574-3.795
		c0.776-0.448,0.678-1.23-0.217-1.747l-3.758-2.17c-0.895-0.517-2.25-0.573-3.026-0.126l-6.574,3.795
		c-0.776,0.448-0.678,1.23,0.217,1.747l3.758,2.17C149.354,188.678,150.709,188.734,151.484,188.287z"/>
	<g>
		<path style="fill:#FFE7D7;" d="M134.359,184.368l-3.97-2.292l0.972-0.561c0.184-0.106,0.36-0.189,0.529-0.249
			c0.169-0.06,0.345-0.099,0.527-0.116c0.182-0.018,0.367-0.003,0.556,0.043c0.188,0.046,0.377,0.124,0.565,0.235
			c0.488,0.284,0.567,0.554,0.237,0.812c0.279-0.11,0.557-0.152,0.833-0.126c0.276,0.026,0.56,0.122,0.852,0.289
			c0.378,0.217,0.57,0.436,0.576,0.659c0.006,0.222-0.174,0.439-0.538,0.649L134.359,184.368z M132.731,182.593l0.225-0.13
			c0.212-0.123,0.313-0.233,0.302-0.332c-0.011-0.099-0.125-0.21-0.34-0.335c-0.112-0.064-0.215-0.109-0.311-0.134
			c-0.096-0.025-0.192-0.029-0.29-0.014c-0.097,0.016-0.19,0.042-0.277,0.079c-0.087,0.037-0.193,0.092-0.32,0.165l-0.101,0.058
			L132.731,182.593z M134.572,183.656l0.266-0.153c0.215-0.124,0.314-0.24,0.297-0.346c-0.018-0.106-0.142-0.226-0.374-0.359
			c-0.239-0.138-0.46-0.211-0.661-0.22c-0.201-0.008-0.412,0.051-0.632,0.178l-0.228,0.131L134.572,183.656z"/>
		<path style="fill:#FFE7D7;" d="M136.871,182.918l-3.163-2.758l0.754-0.436l4.775,1.828l-0.673,0.389l-1.082-0.44l-0.687,0.397
			l0.759,0.626L136.871,182.918z M136.399,181.581l0.532-0.307l-1.896-0.788L136.399,181.581z"/>
		<path style="fill:#FFE7D7;" d="M139.627,181.327l-3.97-2.292l0.498-0.287l3.221,0.737l-2.249-1.298l0.599-0.346l3.97,2.292
			l-0.474,0.274l-3.345-0.798l2.363,1.365L139.627,181.327z"/>
		<path style="fill:#FFE7D7;" d="M142.29,179.789l-3.97-2.292l0.723-0.417l1.724,0.995l-0.943-1.446l0.69-0.398l1.018,1.464
			l3.032,0.783l-0.721,0.416l-2.553-0.683l0.115,0.232l1.609,0.929L142.29,179.789z"/>
	</g>
	<g>
		<path style="opacity:0.4;fill:#06033E;" d="M165.882,190.908c-0.343-0.198-0.898-0.198-1.241,0l-5.755,3.322l-0.496,0.286
			l-4.055,2.341c-0.343,0.198-0.343,0.519,0,0.717c0.343,0.198,0.899,0.198,1.241,0l4.055-2.341l0.496-0.286l5.755-3.322
			C166.225,191.427,166.225,191.106,165.882,190.908z"/>
		<path style="opacity:0.4;fill:#06033E;" d="M179.263,183.127c-0.343-0.198-0.898-0.198-1.241,0l-5.755,3.322l-0.496,0.286
			l-4.055,2.341c-0.343,0.198-0.343,0.519,0,0.717c0.343,0.198,0.899,0.198,1.241,0l4.055-2.341l0.496-0.286l5.755-3.322
			C179.606,183.645,179.605,183.325,179.263,183.127z"/>
		<path style="opacity:0.4;fill:#06033E;" d="M192.643,175.346c-0.343-0.198-0.898-0.198-1.241,0l-5.755,3.322l-0.496,0.286
			l-4.055,2.341c-0.343,0.198-0.343,0.519,0,0.717c0.343,0.198,0.899,0.198,1.241,0l4.055-2.341l0.496-0.286l5.755-3.322
			C192.986,175.864,192.986,175.543,192.643,175.346z"/>
		<path style="opacity:0.4;fill:#06033E;" d="M206.024,167.564c-0.343-0.198-0.898-0.198-1.241,0l-5.755,3.322l-0.496,0.286
			l-4.055,2.341c-0.343,0.198-0.343,0.519,0,0.717c0.343,0.198,0.899,0.198,1.241,0l4.055-2.341l0.496-0.286l5.755-3.322
			C206.367,168.083,206.367,167.762,206.024,167.564z"/>
	</g>
	<path style="fill:#FFE7D7;" d="M180.557,156.512c-0.343-0.198-0.898-0.198-1.241,0l-2.942,1.698l-0.496,0.286l-4.055,2.341
		c-0.343,0.198-0.343,0.519,0,0.717c0.343,0.198,0.899,0.198,1.241,0l4.055-2.341l0.496-0.286l2.942-1.698
		C180.9,157.031,180.9,156.71,180.557,156.512z"/>
	<path style="fill:#FFE7D7;" d="M170.339,162.509c-0.343-0.198-0.898-0.198-1.241,0l-2.942,1.698l-0.496,0.286l-0.424,0.246
		c-0.343,0.198-0.343,0.519,0,0.717c0.343,0.198,0.899,0.198,1.241,0l0.424-0.246l0.496-0.286l2.942-1.698
		C170.682,163.027,170.682,162.706,170.339,162.509z"/>
	<path style="fill:#FFE7D7;" d="M160.74,200.09l2.249-1.298c0.209-0.12,0.182-0.331-0.058-0.47l0,0
		c-0.241-0.139-0.605-0.154-0.814-0.034l-2.249,1.298c-0.209,0.12-0.182,0.331,0.059,0.47l0,0
		C160.167,200.195,160.532,200.21,160.74,200.09z"/>
	<path style="fill:#FFE7D7;" d="M164.248,198.065l0.902-0.521c0.209-0.12,0.183-0.331-0.058-0.47l0,0
		c-0.241-0.139-0.605-0.154-0.814-0.034l-0.902,0.521c-0.209,0.12-0.182,0.331,0.059,0.47l0,0
		C163.675,198.17,164.039,198.185,164.248,198.065z"/>
</g>
<g>
	<g>
		<path style="fill:#E8975B;" d="M360.135,191.634c-0.085,0-0.171-0.021-0.25-0.067l-21.02-12.136
			c-1.454-0.839-2.375-2.584-2.189-4.149l2.988-24.964c0.139-1.165-0.59-2.525-1.696-3.165l-5.295-3.057
			c-0.239-0.138-0.321-0.443-0.183-0.683c0.138-0.238,0.445-0.321,0.683-0.183l5.295,3.057c1.456,0.841,2.376,2.586,2.188,4.149
			l-2.988,24.964c-0.139,1.166,0.591,2.526,1.696,3.165l21.02,12.136c0.239,0.138,0.321,0.443,0.183,0.683
			C360.476,191.544,360.307,191.634,360.135,191.634z"/>
		<path style="fill:#E8975B;" d="M362.211,186.633c-0.739,0-1.516-0.216-2.247-0.639l-22.694-13.104
			c-0.173-0.1-0.27-0.293-0.246-0.492l2.045-17.086c0.019-0.167,0.122-0.313,0.272-0.388c0.15-0.075,0.328-0.069,0.474,0.015
			l28.029,16.183l0,0c0.806,0.466,1.178,1.413,0.904,2.303l-3.32,10.811c-0.314,1.025-1.005,1.794-1.943,2.162
			C363.085,186.555,362.654,186.633,362.211,186.633z M338.055,172.19l22.408,12.939c0.907,0.522,1.876,0.645,2.654,0.338
			c0.649-0.255,1.13-0.797,1.355-1.524l3.32-10.811c0.135-0.442-0.05-0.913-0.449-1.145l-27.373-15.804L338.055,172.19z"/>
		<path style="fill:#E8975B;" d="M339.865,188.486c-0.504,0-1.03-0.146-1.525-0.431c-1.495-0.864-2.309-2.709-1.85-4.201
			c0.217-0.708,0.695-1.238,1.347-1.495c0.731-0.286,1.608-0.189,2.404,0.269c1.496,0.864,2.309,2.709,1.85,4.201v0.001
			c-0.218,0.708-0.696,1.238-1.347,1.494C340.467,188.432,340.17,188.486,339.865,188.486z M338.717,183.195
			c-0.182,0-0.355,0.031-0.516,0.094c-0.367,0.145-0.629,0.441-0.757,0.857c-0.315,1.03,0.322,2.423,1.395,3.042
			c0.531,0.306,1.093,0.381,1.538,0.204c0.367-0.145,0.629-0.442,0.758-0.858c0.315-1.029-0.322-2.422-1.395-3.041
			C339.4,183.297,339.046,183.195,338.717,183.195z M341.613,186.682h0.01H341.613z"/>
		<path style="fill:#E8975B;" d="M355.262,197.376c-0.503,0-1.029-0.146-1.524-0.431c-1.496-0.864-2.309-2.709-1.85-4.201
			c0.218-0.709,0.696-1.239,1.347-1.495c0.733-0.287,1.61-0.189,2.404,0.269c1.495,0.864,2.309,2.709,1.85,4.201l0,0
			c-0.217,0.708-0.695,1.238-1.346,1.495C355.866,197.322,355.568,197.376,355.262,197.376z M354.116,192.086
			c-0.182,0-0.355,0.031-0.515,0.094c-0.367,0.145-0.629,0.441-0.758,0.858c-0.315,1.029,0.322,2.422,1.395,3.041
			c0.53,0.306,1.09,0.381,1.539,0.204c0.367-0.145,0.629-0.441,0.757-0.857c0.315-1.03-0.323-2.423-1.395-3.042
			C354.798,192.188,354.444,192.086,354.116,192.086z M357.012,195.572h0.01H357.012z"/>
	</g>
	<path style="fill:#E8975B;" d="M343.251,176.268c-0.049,0-0.098-0.007-0.147-0.023c-0.265-0.081-0.412-0.36-0.331-0.624
		l4.763-15.509c0.08-0.266,0.358-0.417,0.624-0.331c0.265,0.081,0.412,0.36,0.331,0.624l-4.763,15.509
		C343.663,176.13,343.465,176.268,343.251,176.268z"/>
	<path style="fill:#E8975B;" d="M350.191,180.275c-0.049,0-0.098-0.007-0.146-0.022c-0.265-0.081-0.412-0.36-0.331-0.624
		l4.764-15.508c0.08-0.265,0.36-0.417,0.624-0.331c0.265,0.081,0.412,0.36,0.331,0.624l-4.764,15.508
		C350.603,180.137,350.405,180.275,350.191,180.275z"/>
	<path style="fill:#E8975B;" d="M357.133,184.282c-0.049,0-0.098-0.007-0.146-0.022c-0.265-0.081-0.412-0.36-0.331-0.624
		l4.764-15.508c0.08-0.266,0.359-0.416,0.624-0.331c0.265,0.081,0.412,0.36,0.331,0.624l-4.764,15.508
		C357.545,184.145,357.346,184.282,357.133,184.282z"/>
	<path style="fill:#E8975B;" d="M365.427,183.032c-0.085,0-0.171-0.021-0.25-0.067l-27.132-15.664
		c-0.239-0.138-0.321-0.443-0.183-0.683c0.137-0.239,0.443-0.321,0.683-0.183l27.132,15.664c0.239,0.138,0.321,0.443,0.183,0.683
		C365.768,182.943,365.599,183.032,365.427,183.032z"/>
</g>
<path style="fill:#FFFFFF;" d="M381.122,175.205c-1.085,0-2.226-0.319-3.31-0.944c-3.416-1.973-5.434-6.463-4.5-10.01
	c0.443-1.683,1.483-2.942,2.928-3.543c1.573-0.658,3.484-0.449,5.246,0.567c3.416,1.973,5.434,6.463,4.5,10.01
	c-0.443,1.683-1.483,2.941-2.928,3.543C382.454,175.081,381.799,175.205,381.122,175.205z M378.178,161.262
	c-0.556,0-1.09,0.101-1.58,0.305c-1.171,0.488-2.019,1.525-2.386,2.921c-0.835,3.169,0.989,7.191,4.065,8.967
	c1.508,0.87,3.121,1.059,4.424,0.516c1.17-0.488,2.018-1.525,2.385-2.921l0,0c0.836-3.168-0.988-7.19-4.064-8.967
	C380.081,161.539,379.099,161.262,378.178,161.262z"/>
<g>
	<path style="fill:#FFFFFF;" d="M377.694,169.938l0.187-0.708l1.745-1.266c0.02-0.015,0.089-0.063,0.204-0.144
		c0.116-0.081,0.192-0.138,0.23-0.171c0.038-0.032,0.097-0.086,0.174-0.161c0.077-0.075,0.138-0.15,0.179-0.228
		c0.042-0.077,0.074-0.164,0.099-0.26c0.048-0.182,0.05-0.34,0.002-0.475c-0.04-0.115-0.114-0.205-0.22-0.266
		c-0.017-0.01-0.033-0.018-0.053-0.027c-0.275-0.129-0.479,0.054-0.608,0.549l-0.064,0.238l-0.945-0.546l0.067-0.254
		c0.063-0.241,0.146-0.443,0.248-0.605c0.102-0.163,0.226-0.286,0.369-0.372c0.147-0.086,0.319-0.116,0.521-0.092
		c0.201,0.024,0.422,0.107,0.664,0.246c0.441,0.255,0.744,0.57,0.908,0.945c0.162,0.374,0.186,0.782,0.07,1.222
		c-0.04,0.15-0.094,0.285-0.158,0.405c-0.065,0.119-0.147,0.227-0.246,0.321c-0.098,0.095-0.186,0.172-0.265,0.232
		c-0.078,0.061-0.183,0.135-0.315,0.223c-0.042,0.027-0.073,0.048-0.094,0.063l-1.387,0.967l1.498,0.865l-0.21,0.797
		L377.694,169.938z"/>
</g>
</svg>
